<svg width="320" height="50" viewBox="0 0 320 50" fill="none" xmlns="http://www.w3.org/2000/svg">
<g opacity="0.4">
<path d="M344.406 49.6172C338.129 49.6172 331.858 47.2298 327.078 42.45C317.523 32.8956 317.523 17.3522 327.078 7.79779C331.708 3.16719 337.862 0.620361 344.406 0.620361C350.951 0.620361 357.105 3.16719 361.735 7.79779C371.29 17.3522 371.29 32.8956 361.735 42.45C356.96 47.2247 350.683 49.6172 344.406 49.6172ZM328.364 41.1638C337.208 50.0082 351.599 50.0082 360.444 41.1638C369.288 32.3193 369.288 17.9285 360.444 9.08406C356.158 4.79819 350.462 2.44175 344.401 2.44175C338.34 2.44175 332.645 4.80334 328.359 9.08406C319.514 17.9285 319.514 32.3193 328.359 41.1638H328.364Z" fill="#9DADF2"/>
<path d="M283.954 49.4047C270.448 49.4047 259.463 38.4148 259.463 24.914C259.463 11.4133 270.453 0.42334 283.954 0.42334C297.455 0.42334 308.445 11.4133 308.445 24.914C308.445 38.4148 297.455 49.4047 283.954 49.4047ZM283.954 2.05433C271.349 2.05433 261.094 12.3085 261.094 24.914C261.094 37.5195 271.349 47.7737 283.954 47.7737C296.56 47.7737 306.814 37.5195 306.814 24.914C306.814 12.3085 296.56 2.05433 283.954 2.05433Z" fill="#478BF9"/>
<path d="M299.931 7.4418L292.349 15.0237L293.841 16.5153L301.422 8.93344L299.931 7.4418Z" fill="#478BF9"/>
<path d="M273.835 33.5373L266.253 41.1191L267.744 42.6108L275.326 35.0289L273.835 33.5373Z" fill="#478BF9"/>
<path d="M294.07 33.5445L292.579 35.0361L300.16 42.618L301.652 41.1263L294.07 33.5445Z" fill="#478BF9"/>
<path d="M267.742 7.21345L266.251 8.70508L273.829 16.2833L275.321 14.7917L267.742 7.21345Z" fill="#478BF9"/>
<path d="M289.927 25.5727C290.421 25.0788 290.421 24.2813 289.927 23.7925L288.878 22.748C288.384 22.2541 287.586 22.2541 287.098 22.748L286.532 23.314L285.878 22.6605C285.384 22.1666 284.587 22.1666 284.098 22.6605L283.532 23.2317L282.879 22.5731C282.385 22.0792 281.587 22.0792 281.098 22.5731L277.625 26.046C277.6 26.0718 277.6 26.1129 277.625 26.1438C278.089 26.6068 278.845 26.6068 279.313 26.1438L281.551 23.9057C281.793 23.6639 282.184 23.6639 282.426 23.9057L282.591 24.0703C282.621 24.1012 282.621 24.1475 282.591 24.1784L280.723 26.046C280.697 26.0718 280.697 26.1129 280.723 26.1438C281.186 26.6068 281.942 26.6068 282.41 26.1438L284.556 23.9983C284.798 23.7565 285.189 23.7565 285.431 23.9983L285.595 24.1629C285.621 24.1887 285.621 24.2298 285.595 24.2607L283.794 26.0615C283.769 26.0872 283.769 26.1284 283.794 26.1592C284.258 26.6223 285.014 26.6223 285.482 26.1592L287.556 24.0857C287.797 23.8439 288.188 23.8439 288.43 24.0857L288.785 24.4408C288.924 24.5797 288.924 24.8112 288.785 24.9501L288.729 25.0067C288.59 25.1456 288.358 25.1456 288.219 25.0067L287.761 24.5488C287.736 24.5231 287.694 24.5231 287.664 24.5488L286.871 25.3412C286.846 25.3669 286.846 25.408 286.871 25.4389L287.586 26.1541C288.08 26.648 288.878 26.648 289.367 26.1541L289.933 25.5881L289.927 25.5727Z" fill="#478BF9"/>
<path d="M283.955 6.13428C273.582 6.13428 265.175 14.5414 265.175 24.9139C265.175 35.2864 273.582 43.6935 283.955 43.6935C294.327 43.6935 302.734 35.2864 302.734 24.9139C302.734 14.5414 294.327 6.13428 283.955 6.13428ZM284.721 11.9328C287.736 12.1078 290.474 13.3117 292.593 15.1948L289.882 17.9063C288.467 16.7075 286.682 15.9306 284.721 15.7659V11.9328ZM283.193 11.9328V15.7659C281.233 15.9254 279.448 16.7075 278.033 17.9063L275.321 15.1948C277.441 13.3117 280.178 12.1078 283.193 11.9328ZM274.241 16.2753L276.952 18.9868C275.753 20.4017 274.976 22.187 274.812 24.1473H270.979C271.154 21.1323 272.358 18.3951 274.241 16.2753ZM270.979 25.6754H274.812C274.971 27.6357 275.753 29.421 276.952 30.8359L274.241 33.5474C272.358 31.4276 271.154 28.6904 270.979 25.6754ZM283.193 37.8899C280.178 37.7149 277.441 36.511 275.321 34.6279L278.033 31.9164C279.448 33.1152 281.233 33.8921 283.193 34.0568V37.8899ZM276.062 24.9088C276.062 20.5508 279.597 17.0162 283.955 17.0162C288.313 17.0162 291.847 20.5508 291.847 24.9088C291.847 29.2667 288.313 32.8013 283.955 32.8013C279.597 32.8013 276.062 29.2667 276.062 24.9088ZM284.721 37.8899V34.0568C286.682 33.8973 288.467 33.1152 289.882 31.9164L292.593 34.6279C290.474 36.511 287.736 37.7149 284.721 37.8899ZM293.674 33.5474L290.962 30.8359C292.161 29.421 292.938 27.6357 293.103 25.6754H296.936C296.761 28.6904 295.557 31.4276 293.674 33.5474ZM293.103 24.1473C292.943 22.187 292.161 20.4017 290.962 18.9868L293.674 16.2753C295.557 18.3951 296.761 21.1323 296.936 24.1473H293.103Z" fill="#478BF9"/>
<path d="M202.143 42.1677C192.509 32.5337 192.509 16.8597 202.143 7.22573C211.777 -2.40825 227.451 -2.40825 237.085 7.22573C246.719 16.8597 246.719 32.5337 237.085 42.1677C227.451 51.8017 211.777 51.8017 202.143 42.1677ZM235.921 8.39015C226.929 -0.60188 212.3 -0.60188 203.31 8.39015C194.318 17.3822 194.318 32.0112 203.31 41.0009C212.302 49.9929 226.931 49.9929 235.921 41.0009C244.913 32.0089 244.913 17.3798 235.921 8.39015Z" fill="white"/>
<path d="M236.188 19.4555C236.101 19.3688 236.031 19.2587 235.991 19.1369C235.136 16.6066 233.739 14.3644 231.841 12.4667C229.946 10.5713 227.702 9.1749 225.171 8.3174C224.836 8.2026 224.611 7.891 224.611 7.53722V1.53238C224.611 1.27935 224.728 1.04037 224.928 0.883392C225.129 0.726418 225.389 0.672535 225.633 0.73345C229.958 1.81587 233.917 4.06036 237.08 7.22561C240.243 10.3909 242.488 14.348 243.57 18.673C243.631 18.919 243.575 19.1791 243.42 19.3805C243.263 19.582 243.024 19.6968 242.771 19.6968H236.766C236.541 19.6968 236.335 19.6055 236.183 19.4532L236.188 19.4555ZM233.006 11.3022C234.941 13.2375 236.401 15.5054 237.352 18.0498H241.696C240.604 14.4136 238.619 11.0914 235.918 8.39003C233.217 5.68867 229.895 3.70424 226.261 2.61479V6.95852C228.805 7.90739 231.073 9.36701 233.008 11.3046L233.006 11.3022Z" fill="white"/>
<path d="M202.143 42.1674C198.98 39.0045 196.733 35.045 195.651 30.72C195.59 30.474 195.646 30.2139 195.801 30.0148C195.957 29.8133 196.196 29.6985 196.449 29.6985H202.454C202.808 29.6985 203.122 29.9234 203.235 30.2584C204.09 32.7888 205.486 35.0309 207.384 36.9287C209.279 38.8241 211.524 40.2204 214.054 41.0779C214.389 41.1904 214.614 41.5043 214.614 41.8581V47.863C214.614 48.116 214.497 48.355 214.298 48.5119C214.096 48.6689 213.836 48.7228 213.59 48.6619C209.265 47.5795 205.308 45.335 202.143 42.1721V42.1674ZM197.53 31.3432C198.621 34.9794 200.606 38.3016 203.307 41.003C206.008 43.7043 209.331 45.6888 212.967 46.7805V42.4368C210.423 41.4879 208.155 40.0283 206.219 38.0931C204.284 36.1579 202.825 33.8899 201.873 31.3455H197.53V31.3432Z" fill="white"/>
<path d="M224.856 48.4419C224.702 48.2873 224.615 48.0788 224.615 47.8585V41.8537C224.615 41.4999 224.84 41.186 225.175 41.0735C227.705 40.2184 229.947 38.822 231.845 36.9243C233.743 35.0265 235.137 32.7844 235.994 30.254C236.107 29.919 236.421 29.6941 236.775 29.6941H242.779C243.032 29.6941 243.271 29.8112 243.428 30.0104C243.585 30.2095 243.639 30.4719 243.578 30.7156C242.494 35.0406 240.249 38.9977 237.086 42.163C233.923 45.3282 229.964 47.5727 225.639 48.6551C225.393 48.7161 225.133 48.6598 224.934 48.5052C224.908 48.4818 224.882 48.4607 224.859 48.4372L224.856 48.4419ZM226.262 42.4348V46.7785C229.898 45.6867 233.22 43.7023 235.922 41.0009C238.623 38.2995 240.605 34.9773 241.699 31.3411H237.356C236.407 33.8855 234.947 36.1511 233.01 38.0887C231.074 40.0239 228.806 41.4859 226.262 42.4348Z" fill="white"/>
<path d="M195.866 19.4556C195.843 19.4322 195.82 19.4064 195.801 19.3807C195.644 19.1815 195.59 18.9191 195.651 18.6731C196.733 14.3481 198.978 10.3886 202.143 7.22573C205.308 4.06282 209.265 1.81599 213.59 0.73357C213.836 0.672655 214.097 0.728881 214.296 0.883512C214.495 1.04049 214.612 1.27947 214.612 1.5325V7.53734C214.612 7.89112 214.387 8.20506 214.052 8.31752C211.522 9.17268 209.28 10.569 207.382 12.4668C205.486 14.3622 204.09 16.6067 203.233 19.137C203.12 19.472 202.806 19.697 202.452 19.697H196.448C196.227 19.697 196.016 19.6103 195.864 19.458L195.866 19.4556ZM212.965 2.61491C209.329 3.7067 206.007 5.69114 203.305 8.39249C200.604 11.0939 198.622 14.4161 197.528 18.0523H201.871C202.82 15.5079 204.28 13.2423 206.217 11.3047C208.153 9.36948 210.421 7.90986 212.965 6.95864V2.61491Z" fill="white"/>
<path d="M233.008 11.3024C225.623 3.91762 213.604 3.91527 206.219 11.3024C198.832 18.6896 198.834 30.7063 206.219 38.0911C213.604 45.4759 225.621 45.4782 233.008 38.0911C240.395 30.7039 240.393 18.6872 233.008 11.3024Z" fill="white"/>
<path d="M226.445 31.4578L212.838 31.548C212.265 31.5518 211.803 32.0196 211.807 32.5928L211.81 33.0778C211.814 33.651 212.282 34.1126 212.855 34.1088L226.462 34.0185C227.035 34.0147 227.497 33.547 227.493 32.9738L227.49 32.4888C227.486 31.9156 227.018 31.454 226.445 31.4578Z" fill="#110A1D"/>
<path d="M214.692 23.2442C214.544 23.2442 214.394 23.2114 214.258 23.1458L213.197 22.6327C212.735 22.4078 212.525 21.8619 212.717 21.3863L213.204 20.1727C213.354 19.8025 213.708 19.5612 214.106 19.5588C214.277 19.5588 214.446 19.601 214.596 19.6877L215.861 20.4093C216.097 20.5429 216.268 20.7748 216.329 21.0419C216.39 21.309 216.336 21.5901 216.182 21.815L215.488 22.8201C215.308 23.0825 215.008 23.2419 214.689 23.2419L214.692 23.2442Z" fill="#110A1D"/>
<path d="M224.486 23.1785C224.168 23.1785 223.865 23.0262 223.683 22.7662L222.996 21.7985C222.837 21.576 222.781 21.2948 222.837 21.0277C222.893 20.7606 223.062 20.5263 223.298 20.3881L224.603 19.622C224.751 19.5353 224.92 19.4884 225.091 19.4861C225.489 19.4838 225.848 19.7204 226.002 20.0882L226.494 21.2667C226.691 21.74 226.487 22.2905 226.03 22.5201L224.92 23.0754C224.786 23.141 224.636 23.1785 224.489 23.1785H224.486Z" fill="#110A1D"/>
<path d="M213.623 30.6383C213.025 30.643 212.489 30.2681 212.285 29.7058L210.015 23.4573C209.869 23.5276 209.715 23.5815 209.558 23.6213C209.373 23.6682 209.185 23.6916 208.995 23.6916C208.885 23.6916 208.777 23.6869 208.672 23.6729C207.489 23.5229 206.592 22.5084 206.585 21.3136C206.575 19.9922 207.644 18.9098 208.965 18.9004C210.286 18.891 211.369 19.9594 211.376 21.2808C211.376 21.5853 211.324 21.8782 211.216 22.1523C211.158 22.3023 211.085 22.4452 211.001 22.5811L215.319 24.6709L218.622 19.8844C218.484 19.8258 218.351 19.7532 218.224 19.6665C217.985 19.5049 217.777 19.3034 217.608 19.0667C217.322 18.6638 217.167 18.1881 217.165 17.6961C217.156 16.3747 218.224 15.2923 219.545 15.283C219.604 15.283 219.665 15.283 219.723 15.2876C220.907 15.3673 221.863 16.3162 221.949 17.4993C221.989 18.0593 221.841 18.5958 221.523 19.0527C221.354 19.2917 221.148 19.4955 220.911 19.6571C220.787 19.7438 220.654 19.8165 220.515 19.875L223.877 24.6124L228.125 22.4874C228.045 22.3351 227.982 22.1758 227.935 22.0094C227.879 21.8079 227.849 21.5971 227.849 21.3839C227.849 21.2878 227.853 21.1917 227.863 21.098C227.999 19.8938 229.015 18.98 230.227 18.973C231.548 18.9636 232.63 20.032 232.638 21.3534C232.647 22.6139 231.668 23.6729 230.409 23.7595L230.259 23.7642C230.016 23.7642 229.777 23.7314 229.545 23.6611C229.395 23.6143 229.25 23.5557 229.114 23.4807L226.982 29.6074C226.787 30.1721 226.253 30.5516 225.656 30.5563L213.623 30.6359V30.6383Z" fill="#110A1D"/>
<path d="M159.953 49.6172C153.676 49.6172 147.404 47.2299 142.624 42.4501C133.07 32.8956 133.07 17.3522 142.624 7.79779C147.255 3.16719 153.408 0.620361 159.953 0.620361C166.498 0.620361 172.651 3.16719 177.282 7.79779C186.836 17.3522 186.836 32.8956 177.282 42.4501C172.507 47.2247 166.23 49.6172 159.953 49.6172ZM143.911 41.1638C152.755 50.0082 167.146 50.0082 175.99 41.1638C184.835 32.3194 184.835 17.9285 175.99 9.08406C171.704 4.79819 166.009 2.44175 159.948 2.44175C153.887 2.44175 148.191 4.80334 143.905 9.08406C135.061 17.9285 135.061 32.3194 143.905 41.1638H143.911Z" fill="#9DADF2"/>
<path d="M159.629 34.2898C159.716 34.5008 159.922 34.6242 160.138 34.6242C160.21 34.6242 160.282 34.6088 160.354 34.5831C162.083 33.8576 163.657 32.7359 164.903 31.3365C165.103 31.1101 165.083 30.7603 164.856 30.5596C164.63 30.3589 164.28 30.3795 164.079 30.6059C162.942 31.887 161.507 32.9109 159.927 33.5695C159.649 33.6878 159.516 34.012 159.634 34.2898H159.629Z" fill="#9DADF2"/>
<path d="M169.291 16.6523L160.153 12.9993C160.019 12.9478 159.875 12.9478 159.741 12.9993L150.604 16.6523C150.393 16.7346 150.259 16.9353 150.259 17.1617V23.7062C150.269 29.7466 154.087 35.2055 159.757 37.2842C159.819 37.3048 159.88 37.3151 159.947 37.3151C160.014 37.3151 160.076 37.3048 160.138 37.2842C165.808 35.2004 169.625 29.7466 169.636 23.7062V17.1617C169.636 16.9353 169.502 16.7346 169.291 16.6523ZM168.534 23.7062C168.524 29.2012 165.077 34.2074 159.952 36.178C154.828 34.2074 151.376 29.2012 151.365 23.7062V17.5373L159.952 14.1055L168.534 17.5373V23.7062Z" fill="#9DADF2"/>
<path d="M156.135 17.5117C156.001 17.4551 155.852 17.4551 155.713 17.5117L153.537 18.3812C153.326 18.4636 153.192 18.6642 153.192 18.8906V21.211C153.192 21.5146 153.439 21.7615 153.742 21.7615C154.046 21.7615 154.293 21.5146 154.293 21.211V19.2662L156.119 18.5356C156.258 18.479 156.361 18.3761 156.423 18.2372C156.48 18.1034 156.48 17.9542 156.423 17.8153C156.366 17.6764 156.264 17.5734 156.13 17.5117H156.135Z" fill="#9DADF2"/>
<path d="M173.865 11.2088C170.15 7.4889 165.205 5.44629 159.947 5.44629C154.689 5.44629 149.75 7.49405 146.03 11.2088C138.358 18.8802 138.358 31.3673 146.03 39.0438C149.868 42.8821 154.905 44.796 159.947 44.796C164.989 44.796 170.026 42.8769 173.865 39.0438C181.536 31.3725 181.536 18.8853 173.865 11.2088ZM171.143 23.7063C171.158 30.6882 166.698 36.7954 160.045 38.9101C159.983 38.9306 159.916 38.9306 159.849 38.9101C153.197 36.7954 148.736 30.6882 148.751 23.7063V15.9834C148.751 15.8548 148.829 15.7365 148.952 15.6851L159.829 11.3374C159.865 11.322 159.906 11.3169 159.947 11.3169C159.988 11.3169 160.029 11.322 160.065 11.3374L170.942 15.6902C171.066 15.7365 171.143 15.8548 171.143 15.9886V23.7114V23.7063Z" fill="#9DADF2"/>
<path d="M97.3703 49.5375C83.8645 49.5375 72.8796 38.5476 72.8796 25.0468C72.8796 11.5461 83.8696 0.556152 97.3703 0.556152C110.871 0.556152 121.861 11.5461 121.861 25.0468C121.861 38.5476 110.871 49.5375 97.3703 49.5375ZM97.3703 2.18714C84.7648 2.18714 74.5107 12.4413 74.5107 25.0468C74.5107 37.6523 84.7648 47.9065 97.3703 47.9065C109.976 47.9065 120.23 37.6523 120.23 25.0468C120.23 12.4413 109.976 2.18714 97.3703 2.18714Z" fill="white"/>
<path d="M105.314 9.75023C105.19 9.75023 105.067 9.72451 104.954 9.66792C102.582 8.49483 100.03 7.898 97.3697 7.898C94.7097 7.898 92.1577 8.49483 89.7858 9.66792C89.472 9.82227 89.0964 9.7605 88.8494 9.51354L84.6407 5.30485C84.4606 5.12477 84.3783 4.8778 84.4092 4.62569C84.4401 4.37358 84.5841 4.15235 84.8002 4.02372C88.5922 1.74959 92.9398 0.550781 97.3749 0.550781C101.81 0.550781 106.158 1.75474 109.949 4.02372C110.166 4.15235 110.31 4.37358 110.34 4.62569C110.371 4.8778 110.284 5.12477 110.109 5.30485L105.9 9.51354C105.741 9.66789 105.535 9.75023 105.319 9.75023H105.314ZM97.3697 6.26698C100.081 6.26698 102.695 6.83295 105.144 7.94944L108.19 4.90355C104.876 3.1182 101.156 2.18177 97.3697 2.18177C93.5829 2.18177 89.863 3.1182 86.5495 4.90355L89.5955 7.94944C92.0445 6.83295 94.6582 6.26698 97.3697 6.26698Z" fill="white"/>
<path d="M97.369 49.5375C92.9339 49.5375 88.5863 48.3335 84.7944 46.0645C84.5783 45.9359 84.4342 45.7146 84.4033 45.4625C84.3725 45.2104 84.4599 44.9635 84.6349 44.7834L88.8436 40.5747C89.0905 40.3277 89.4713 40.266 89.78 40.4203C92.1519 41.5934 94.7038 42.1903 97.3638 42.1903C100.024 42.1903 102.576 41.5934 104.948 40.4203C105.262 40.266 105.637 40.3277 105.884 40.5747L110.093 44.7834C110.273 44.9635 110.355 45.2104 110.324 45.4625C110.293 45.7146 110.149 45.9359 109.933 46.0645C106.141 48.3387 101.794 49.5375 97.3587 49.5375H97.369ZM86.5488 45.1847C89.8623 46.9701 93.5822 47.9065 97.369 47.9065C101.156 47.9065 104.876 46.9701 108.189 45.1847L105.143 42.1388C102.694 43.2553 100.08 43.8212 97.369 43.8212C94.6575 43.8212 92.0438 43.2553 89.5947 42.1388L86.5488 45.1847Z" fill="white"/>
<path d="M117.689 38.0124C117.473 38.0124 117.267 37.93 117.113 37.7757L112.904 33.567C112.657 33.32 112.595 32.9393 112.75 32.6306C113.923 30.2587 114.52 27.7067 114.52 25.0467C114.52 22.3867 113.923 19.8347 112.75 17.4628C112.595 17.149 112.657 16.7682 112.904 16.5264L117.113 12.3177C117.293 12.1376 117.54 12.0553 117.792 12.0862C118.044 12.1171 118.265 12.2611 118.394 12.4772C120.668 16.2692 121.867 20.6168 121.867 25.0519C121.867 29.4869 120.668 33.8345 118.394 37.6265C118.265 37.8426 118.044 37.9866 117.792 38.0175C117.756 38.0175 117.725 38.0175 117.689 38.0175V38.0124ZM114.463 32.8158L117.509 35.8617C119.294 32.5483 120.231 28.8283 120.231 25.0416C120.231 21.2548 119.294 17.5349 117.509 14.2214L114.463 17.2673C115.579 19.7164 116.145 22.3301 116.145 25.0416C116.145 27.753 115.579 30.3668 114.463 32.8158Z" fill="white"/>
<path d="M77.0521 38.0124C77.0161 38.0124 76.9852 38.0124 76.9543 38.0072C76.7022 37.9764 76.481 37.8323 76.3523 37.6162C74.0782 33.8243 72.8794 29.4766 72.8794 25.0416C72.8794 20.6065 74.0782 16.2589 76.3523 12.467C76.481 12.2509 76.7022 12.1068 76.9543 12.0759C77.2064 12.0451 77.4534 12.1325 77.6335 12.3074L81.8422 16.5162C82.0892 16.7631 82.1509 17.1438 81.9965 17.4525C80.8234 19.8244 80.2266 22.3764 80.2266 25.0364C80.2266 27.6965 80.8234 30.2484 81.9965 32.6203C82.1509 32.9342 82.0892 33.3149 81.8422 33.5567L77.6335 37.7654C77.4791 37.9198 77.2733 38.0072 77.0572 38.0072L77.0521 38.0124ZM77.2322 14.2214C75.4468 17.5349 74.5104 21.2548 74.5104 25.0416C74.5104 28.8284 75.4468 32.5483 77.2322 35.8617L80.2781 32.8158C79.1616 30.3668 78.5956 27.753 78.5956 25.0416C78.5956 22.3301 79.1616 19.7164 80.2781 17.2673L77.2322 14.2214Z" fill="white"/>
<path d="M97.3707 6.26709C87.0187 6.26709 78.5911 14.6896 78.5911 25.0467C78.5911 35.4038 87.0136 43.8263 97.3707 43.8263C107.728 43.8263 116.15 35.4038 116.15 25.0467C116.15 14.6896 107.728 6.26709 97.3707 6.26709ZM107.939 18.8777C108.829 20.4007 109.369 22.0626 109.544 23.8273C109.549 23.8994 109.518 23.9663 109.457 24.0023C108.114 24.8255 106.91 25.8339 105.87 27.0121C105.824 27.0687 105.747 27.0893 105.68 27.0636L103.36 26.3073C103.293 26.2867 103.246 26.2301 103.236 26.1581C102.974 24.2389 102.377 22.4022 101.461 20.694C101.43 20.6322 101.435 20.5602 101.476 20.5036L102.912 18.5279C102.948 18.4816 103.005 18.4507 103.061 18.4507C103.077 18.4507 103.087 18.4507 103.102 18.4507C104.636 18.7903 106.21 18.9035 107.774 18.7748C107.846 18.7697 107.913 18.8057 107.949 18.8674L107.939 18.8777ZM101.97 26.4822C101.976 26.5337 101.96 26.5851 101.929 26.6211C100.71 28.0257 99.156 29.1525 97.4427 29.8728C97.3964 29.8934 97.3501 29.8934 97.3038 29.8728C95.5905 29.1474 94.0366 28.0206 92.8173 26.6211C92.7864 26.5851 92.771 26.5337 92.7761 26.4822C93.0128 24.6197 93.5942 22.8395 94.4946 21.193C94.5203 21.1467 94.5615 21.1159 94.6129 21.1056C95.5185 20.9152 96.4446 20.8175 97.3758 20.8175C98.3071 20.8175 99.2332 20.9152 100.139 21.1056C100.19 21.1159 100.231 21.1467 100.257 21.193C101.157 22.8395 101.734 24.6197 101.976 26.4822H101.97ZM101.693 13.7121C101.693 13.7121 101.754 13.6606 101.816 13.6606C101.837 13.6606 101.862 13.6606 101.888 13.676C103.781 14.4272 105.474 15.6621 106.791 17.2416C106.858 17.3188 106.833 17.4011 106.817 17.432C106.807 17.4577 106.76 17.54 106.652 17.54C105.485 17.5555 104.322 17.4217 103.195 17.1541C103.149 17.1439 103.107 17.113 103.082 17.0718C102.48 16.0788 101.996 15.0086 101.646 13.8973C101.615 13.7995 101.672 13.7326 101.698 13.7121H101.693ZM94.7724 13.0947C96.4754 12.7293 98.2711 12.7293 99.9741 13.0947C100.041 13.1101 100.098 13.1615 100.113 13.2284C100.478 14.7565 101.07 16.2177 101.868 17.5709C101.904 17.6326 101.898 17.7098 101.857 17.7716L100.432 19.737C100.391 19.7936 100.319 19.8244 100.252 19.809C98.3688 19.4283 96.3777 19.4283 94.4946 19.809C94.4277 19.8244 94.3557 19.7936 94.3145 19.737L92.8893 17.7716C92.8481 17.715 92.843 17.6326 92.879 17.5709C93.6765 16.2177 94.2682 14.7565 94.6335 13.2284C94.6489 13.1615 94.7055 13.1101 94.7724 13.0947ZM87.9552 17.2416C89.2723 15.6569 90.965 14.4221 92.8584 13.676C92.8841 13.6658 92.9099 13.6606 92.9305 13.6606C92.9973 13.6606 93.0385 13.6966 93.0539 13.7121C93.0797 13.7378 93.1362 13.7995 93.1054 13.8973C92.7555 15.0138 92.2719 16.0788 91.6699 17.0718C91.6442 17.113 91.603 17.1439 91.5567 17.1541C90.43 17.4217 89.2671 17.5555 88.0992 17.54C87.9912 17.54 87.9448 17.4577 87.9346 17.432C87.9191 17.4011 87.8934 17.3188 87.9603 17.2416H87.9552ZM86.8078 18.8777C86.8386 18.8211 86.9004 18.7851 86.9673 18.7851C86.9673 18.7851 86.9776 18.7851 86.9827 18.7851C88.552 18.9086 90.1264 18.8006 91.6545 18.461C91.7265 18.4456 91.7985 18.4713 91.8397 18.533L93.2752 20.5087C93.3163 20.5653 93.3215 20.6425 93.2906 20.6991C92.3748 22.4073 91.778 24.2441 91.5156 26.1632C91.5053 26.2301 91.459 26.2867 91.3921 26.3124L89.0716 27.0687C89.0047 27.0893 88.9276 27.0687 88.8813 27.0173C87.842 25.8391 86.638 24.8306 85.2951 24.0074C85.2385 23.9714 85.2025 23.9045 85.2077 23.8325C85.3826 22.0677 85.9228 20.4007 86.8129 18.8829L86.8078 18.8777ZM87.3686 31.5553C87.3377 31.653 87.2503 31.6736 87.2143 31.6788C87.1782 31.6788 87.0959 31.6788 87.0393 31.5964C85.9434 29.8728 85.2951 27.8765 85.1665 25.8288C85.1613 25.7259 85.2282 25.6744 85.2591 25.659C85.29 25.6435 85.3723 25.6075 85.4546 25.6693C86.4065 26.3433 87.2708 27.1356 88.0272 28.0154C88.058 28.0515 88.0735 28.0978 88.0683 28.1492C87.9757 29.3069 87.739 30.4542 87.3635 31.5604L87.3686 31.5553ZM92.452 36.2528C90.8467 35.5479 89.4318 34.5137 88.2484 33.1863C88.2021 33.1348 88.1867 33.0576 88.2124 32.9959C88.8144 31.545 89.1951 30.0169 89.3443 28.4528C89.3495 28.3807 89.4009 28.319 89.4678 28.2984L91.7625 27.5524C91.7625 27.5524 91.7985 27.5421 91.8191 27.5421C91.8706 27.5421 91.9169 27.5627 91.9529 27.6038C93.2392 29.0445 94.8496 30.2175 96.6143 30.9944C96.6812 31.0253 96.7224 31.0871 96.7224 31.1591V33.5722C96.7224 33.6442 96.6812 33.7111 96.6143 33.7368C95.1737 34.3594 93.836 35.198 92.6372 36.2219C92.5857 36.2682 92.5086 36.2785 92.4468 36.2476L92.452 36.2528ZM100.545 36.7621C100.54 36.7981 100.514 36.8805 100.411 36.9062C98.4254 37.4104 96.3262 37.4104 94.3402 36.9062C94.2425 36.8805 94.2116 36.7981 94.2064 36.7621C94.2013 36.7261 94.191 36.6438 94.2785 36.5769C95.2149 35.8823 96.2336 35.3009 97.3089 34.8533C97.3553 34.8327 97.4015 34.8327 97.4478 34.8533C98.518 35.3009 99.5368 35.8823 100.478 36.5769C100.561 36.6386 100.556 36.7261 100.55 36.7621H100.545ZM106.508 33.1914C105.325 34.5189 103.91 35.5479 102.305 36.2528C102.238 36.2836 102.166 36.2682 102.114 36.227C100.916 35.2032 99.5831 34.3645 98.1373 33.7419C98.0704 33.7111 98.0292 33.6493 98.0292 33.5773V31.1642C98.0292 31.0922 98.0704 31.0253 98.1373 30.9996C99.9021 30.2227 101.518 29.0496 102.799 27.609C102.835 27.5678 102.881 27.5473 102.933 27.5473C102.953 27.5473 102.969 27.5472 102.989 27.5575L105.284 28.3036C105.351 28.3242 105.402 28.3859 105.407 28.4579C105.557 30.022 105.937 31.545 106.539 33.0011C106.565 33.0628 106.555 33.14 106.503 33.1914H106.508ZM107.712 31.6016C107.656 31.689 107.568 31.6891 107.537 31.6839C107.501 31.6839 107.419 31.6582 107.383 31.5604C107.013 30.4542 106.776 29.3069 106.678 28.1492C106.678 28.1029 106.688 28.0515 106.719 28.0154C107.476 27.1356 108.34 26.3484 109.292 25.6693C109.328 25.6436 109.364 25.6333 109.395 25.6333C109.436 25.6333 109.467 25.6487 109.487 25.659C109.518 25.6744 109.59 25.7259 109.58 25.8288C109.451 27.8765 108.803 29.8728 107.707 31.5964L107.712 31.6016Z" fill="white"/>
<path d="M36.3417 49.6172C30.0647 49.6172 23.7928 47.2298 19.013 42.45C9.45855 32.8956 9.45855 17.3522 19.013 7.79779C23.6436 3.16719 29.7971 0.620361 36.3417 0.620361C42.8863 0.620361 49.0398 3.16719 53.6704 7.79779C63.2249 17.3522 63.2249 32.8956 53.6704 42.45C48.8958 47.2247 42.6187 49.6172 36.3417 49.6172ZM20.2993 41.1638C29.1437 50.0082 43.5346 50.0082 52.379 41.1638C61.2234 32.3193 61.2234 17.9285 52.379 9.08406C48.0931 4.79819 42.3975 2.44175 36.3366 2.44175C30.2756 2.44175 24.58 4.80334 20.2941 9.08406C11.4497 17.9285 11.4497 32.3193 20.2941 41.1638H20.2993Z" fill="#9DADF2"/>
<path d="M36.0175 34.2952C36.105 34.5061 36.3108 34.6296 36.5269 34.6296C36.5989 34.6296 36.671 34.6142 36.743 34.5884C38.4717 33.863 40.0461 32.7413 41.2912 31.3419C41.4919 31.1155 41.4713 30.7656 41.245 30.565C41.0186 30.3643 40.6687 30.3849 40.468 30.6113C39.331 31.8924 37.8955 32.9163 36.3159 33.5748C36.0381 33.6932 35.9043 34.0173 36.0227 34.2952H36.0175Z" fill="#9DADF2"/>
<path d="M45.6795 16.6523L36.5418 12.9993C36.408 12.9478 36.2639 12.9478 36.1302 12.9993L26.9924 16.6523C26.7815 16.7346 26.6477 16.9353 26.6477 17.1617V23.7062C26.658 29.7466 30.4757 35.2055 36.1456 37.2842C36.2073 37.3048 36.2691 37.315 36.3359 37.315C36.4028 37.315 36.4646 37.3048 36.5263 37.2842C42.1962 35.2004 46.0139 29.7466 46.0242 23.7062V17.1617C46.0242 16.9353 45.8904 16.7346 45.6795 16.6523ZM44.9231 23.7062C44.9128 29.2012 41.4656 34.2074 36.3411 36.178C31.2166 34.2074 27.7642 29.2012 27.7539 23.7062V17.5373L36.3411 14.1055L44.9231 17.5373V23.7062Z" fill="#9DADF2"/>
<path d="M32.5236 17.5117C32.3898 17.4551 32.2406 17.4551 32.1017 17.5117L29.9253 18.3812C29.7144 18.4635 29.5806 18.6642 29.5806 18.8906V21.211C29.5806 21.5146 29.8275 21.7615 30.1311 21.7615C30.4347 21.7615 30.6816 21.5146 30.6816 21.211V19.2662L32.5081 18.5356C32.647 18.479 32.75 18.376 32.8117 18.2371C32.8683 18.1034 32.8683 17.9541 32.8117 17.8152C32.7551 17.6763 32.6522 17.5734 32.5184 17.5117H32.5236Z" fill="#9DADF2"/>
<path d="M50.2533 11.2088C46.5385 7.4889 41.5941 5.44629 36.3358 5.44629C31.0775 5.44629 26.1382 7.49405 22.4183 11.2088C14.747 18.8802 14.747 31.3673 22.4183 39.0438C26.2566 42.882 31.2936 44.796 36.3358 44.796C41.378 44.796 46.4151 42.8769 50.2533 39.0438C57.9246 31.3725 57.9246 18.8853 50.2533 11.2088ZM47.5315 23.7063C47.547 30.6882 43.0862 36.7954 36.4336 38.91C36.3718 38.9306 36.3049 38.9306 36.238 38.91C29.5854 36.7954 25.1246 30.6882 25.1401 23.7063V15.9834C25.1401 15.8548 25.2172 15.7365 25.3407 15.6851L36.2175 11.3374C36.2535 11.322 36.2946 11.3169 36.3358 11.3169C36.377 11.3169 36.4181 11.322 36.4541 11.3374L47.3309 15.6902C47.4544 15.7365 47.5315 15.8548 47.5315 15.9886V23.7114V23.7063Z" fill="#9DADF2"/>
<path d="M-24.1106 49.405C-37.6165 49.405 -48.6013 38.415 -48.6013 24.9143C-48.6013 11.4135 -37.6114 0.423584 -24.1106 0.423584C-10.6099 0.423584 0.380062 11.4135 0.380062 24.9143C0.380062 38.415 -10.6099 49.405 -24.1106 49.405ZM-24.1106 2.05457C-36.7161 2.05457 -46.9703 12.3088 -46.9703 24.9143C-46.9703 37.5198 -36.7161 47.7739 -24.1106 47.7739C-11.5051 47.7739 -1.25093 37.5198 -1.25093 24.9143C-1.25093 12.3088 -11.5051 2.05457 -24.1106 2.05457Z" fill="#478BF9"/>
</g>
</svg>
