<svg xmlns="http://www.w3.org/2000/svg" xmlns:xlink="http://www.w3.org/1999/xlink" version="1.1" width="1000" height="1000" viewBox="0 0 1000 1000" xml:space="preserve">
<desc>Created with Fabric.js 3.5.0</desc>
<defs>
</defs>
<rect x="0" y="0" width="100%" height="100%" fill="rgba(192,160,160,0)"/>
<g transform="matrix(4.1135 0 0 4.1135 502.2658 152.5771)" id="756518">
<path style="stroke: none; stroke-width: 1; stroke-dasharray: none; stroke-linecap: butt; stroke-dashoffset: 0; stroke-linejoin: miter; stroke-miterlimit: 4; is-custom-font: none; font-file-url: none; fill: rgb(255,255,255); fill-rule: nonzero; opacity: 1;" transform=" translate(-49.5788, -26.0417)" d="M 99.1135 49.9295 C 99.1135 50.9183 98.312 51.7094 97.3336 51.7094 C 96.3552 51.7094 95.5537 50.9079 95.5537 49.9295 C 95.5537 24.5741 74.9238 3.94418 49.5684 3.94418 C 24.213 3.94418 3.58305 24.5741 3.58305 49.9295 C 3.58305 50.9183 2.78156 51.7094 1.80315 51.7094 C 0.82474 51.7094 0.0233154 50.9079 0.0233154 49.9295 C 0.0233154 22.6069 22.2561 0.374023 49.5788 0.374023 C 76.9015 0.374023 99.1343 22.6069 99.1343 49.9295 H 99.1135 Z" stroke-linecap="round"/>
</g>
<g transform="matrix(4.1135 0 0 4.1135 699.9529 493.6937)" id="398142">
<path style="stroke: none; stroke-width: 1; stroke-dasharray: none; stroke-linecap: butt; stroke-dashoffset: 0; stroke-linejoin: miter; stroke-miterlimit: 4; is-custom-font: none; font-file-url: none; fill: rgb(255,255,255); fill-rule: nonzero; opacity: 1;" transform=" translate(-97.3931, -108.9674)" d="M 99.1729 49.1697 V 168.765 C 99.1729 169.754 98.3715 170.545 97.3931 170.545 C 96.4146 170.545 95.6132 169.743 95.6132 168.765 V 49.1697 C 95.6132 48.1809 96.4146 47.3899 97.3931 47.3899 C 98.3715 47.3899 99.1729 48.1913 99.1729 49.1697 Z" stroke-linecap="round"/>
</g>
<g transform="matrix(4.1135 0 0 4.1135 304.9656 492.6236)" id="689468">
<path style="stroke: none; stroke-width: 1; stroke-dasharray: none; stroke-linecap: butt; stroke-dashoffset: 0; stroke-linejoin: miter; stroke-miterlimit: 4; is-custom-font: none; font-file-url: none; fill: rgb(255,255,255); fill-rule: nonzero; opacity: 1;" transform=" translate(-1.8579, -108.7073)" d="M 3.63774 48.9095 V 168.505 C 3.63774 169.494 2.83625 170.285 1.85784 170.285 C 0.879427 170.285 0.0780029 169.483 0.0780029 168.505 V 48.9095 C 0.0780029 47.9207 0.879427 47.1296 1.85784 47.1296 C 2.83625 47.1296 3.63774 47.9311 3.63774 48.9095 Z" stroke-linecap="round"/>
</g>
<g transform="matrix(4.1135 0 0 4.1135 503.4216 723.7309)" id="545616">
<path style="stroke: none; stroke-width: 1; stroke-dasharray: none; stroke-linecap: butt; stroke-dashoffset: 0; stroke-linejoin: miter; stroke-miterlimit: 4; is-custom-font: none; font-file-url: none; fill: rgb(255,255,255); fill-rule: nonzero; opacity: 1;" transform=" translate(-50.8322, -119.9159)" d="M 15.4881 155.26 C -4.00158 135.77 -4.00158 104.061 15.4881 84.5716 C 34.9779 65.0819 66.6866 65.0819 86.1763 84.5716 C 105.666 104.061 105.666 135.77 86.1763 155.26 C 66.6866 174.75 34.9779 174.75 15.4881 155.26 Z M 83.8207 86.9273 C 65.6296 68.7362 36.0348 68.7362 17.8485 86.9273 C -0.342528 105.118 -0.342528 134.713 17.8485 152.899 C 36.0396 171.09 65.6344 171.09 83.8207 152.899 C 102.012 134.708 102.012 105.114 83.8207 86.9273 Z" stroke-linecap="round"/>
</g>
<g transform="matrix(4.1135 0 0 4.1135 382.8056 839.3625)" id="715827">
<path style="stroke: none; stroke-width: 1; stroke-dasharray: none; stroke-linecap: butt; stroke-dashoffset: 0; stroke-linejoin: miter; stroke-miterlimit: 4; is-custom-font: none; font-file-url: none; fill: rgb(255,255,255); fill-rule: nonzero; opacity: 1;" transform=" translate(-21.5102, -149.2412)" d="M 15.4867 155.26 C 9.0881 148.861 4.5427 140.851 2.35295 132.101 C 2.22971 131.604 2.34347 131.078 2.6563 130.675 C 2.97386 130.267 3.45729 130.035 3.96918 130.035 H 16.1171 C 16.8328 130.035 17.4679 130.49 17.6954 131.168 C 19.4254 136.287 22.2503 140.823 26.0894 144.662 C 29.9239 148.496 34.4646 151.321 39.5835 153.056 C 40.2612 153.283 40.7162 153.918 40.7162 154.634 V 166.782 C 40.7162 167.294 40.4792 167.777 40.0764 168.095 C 39.6687 168.412 39.1426 168.521 38.645 168.398 C 29.8954 166.208 21.8901 161.668 15.4867 155.269 V 155.26 Z M 6.15421 133.362 C 8.36292 140.718 12.3774 147.439 17.8423 152.904 C 23.3072 158.369 30.0282 162.384 37.3842 164.592 V 155.805 C 32.2369 153.885 27.6488 150.932 23.7338 147.017 C 19.8188 143.102 16.866 138.514 14.9416 133.367 H 6.15421 V 133.362 Z" stroke-linecap="round"/>
</g>
<g transform="matrix(4.1135 0 0 4.1135 624.0273 835.3139)" id="2330">
<path style="stroke: none; stroke-width: 1; stroke-dasharray: none; stroke-linecap: butt; stroke-dashoffset: 0; stroke-linejoin: miter; stroke-miterlimit: 4; is-custom-font: none; font-file-url: none; fill: rgb(255,255,255); fill-rule: nonzero; opacity: 1;" transform=" translate(-80.1512, -149.2294)" d="M 61.433 167.953 C 61.1202 167.64 60.9448 167.218 60.9448 166.773 V 154.625 C 60.9448 153.909 61.3998 153.274 62.0776 153.046 C 67.1965 151.316 71.7324 148.492 75.5716 144.652 C 79.4108 140.813 82.2309 136.277 83.9656 131.158 C 84.1931 130.481 84.8283 130.026 85.544 130.026 H 97.6919 C 98.2038 130.026 98.6872 130.263 99.0048 130.665 C 99.3223 131.068 99.4314 131.599 99.3081 132.092 C 97.1136 140.842 92.573 148.847 86.1743 155.25 C 79.7757 161.654 71.7656 166.194 63.0161 168.384 C 62.5184 168.507 61.9923 168.394 61.5894 168.081 C 61.5373 168.033 61.4852 167.991 61.4378 167.943 L 61.433 167.953 Z M 64.2769 155.8 V 164.588 C 71.6329 162.379 78.3538 158.364 83.8187 152.9 C 89.2836 147.435 93.2934 140.714 95.5069 133.358 H 86.7194 C 84.7998 138.505 81.847 143.088 77.9272 147.008 C 74.0122 150.923 69.4242 153.881 64.2769 155.8 Z" stroke-linecap="round"/>
</g>
<g transform="matrix(4.1135 0 0 4.1135 624.0064 605.1183)" id="169160">
<path style="stroke: none; stroke-width: 1; stroke-dasharray: none; stroke-linecap: butt; stroke-dashoffset: 0; stroke-linejoin: miter; stroke-miterlimit: 4; is-custom-font: none; font-file-url: none; fill: rgb(255,255,255); fill-rule: nonzero; opacity: 1;" transform=" translate(-80.1461, -90.5947)" d="M 84.3638 109.313 C 84.1884 109.138 84.0462 108.915 83.9657 108.668 C 82.2357 103.55 79.4108 99.0136 75.5716 95.1744 C 71.7372 91.34 67.1965 88.5151 62.0776 86.7804 C 61.3998 86.5481 60.9448 85.9178 60.9448 85.2021 V 73.0542 C 60.9448 72.5423 61.1818 72.0588 61.5847 71.7413 C 61.9923 71.4237 62.5184 71.3147 63.0113 71.4379 C 71.7609 73.6277 79.771 78.1683 86.1696 84.5717 C 92.5682 90.975 97.1089 98.9804 99.2987 107.73 C 99.4219 108.228 99.3081 108.754 98.9953 109.161 C 98.6777 109.569 98.1943 109.801 97.6824 109.801 H 85.5345 C 85.0795 109.801 84.6624 109.616 84.3543 109.308 L 84.3638 109.313 Z M 77.9272 92.8188 C 81.8422 96.7338 84.7951 101.322 86.7194 106.469 H 95.5069 C 93.2982 99.1131 89.2836 92.3922 83.8187 86.9273 C 78.3538 81.4624 71.6329 77.4479 64.2816 75.2439 V 84.0314 C 69.4289 85.9509 74.017 88.9038 77.932 92.8235 L 77.9272 92.8188 Z" stroke-linecap="round"/>
</g>
<g transform="matrix(4.1135 0 0 4.1135 382.7976 605.1198)" id="698344">
<path style="stroke: none; stroke-width: 1; stroke-dasharray: none; stroke-linecap: butt; stroke-dashoffset: 0; stroke-linejoin: miter; stroke-miterlimit: 4; is-custom-font: none; font-file-url: none; fill: rgb(255,255,255); fill-rule: nonzero; opacity: 1;" transform=" translate(-21.5082, -90.5951)" d="M 2.78974 109.313 C 2.74234 109.266 2.69496 109.213 2.65704 109.161 C 2.33948 108.758 2.23046 108.228 2.35369 107.73 C 4.54344 98.9804 9.0841 90.9703 15.4875 84.5717 C 21.8908 78.173 29.8962 73.6277 38.6457 71.4379 C 39.1434 71.3147 39.6695 71.4284 40.0724 71.7412 C 40.4752 72.0588 40.7123 72.5423 40.7123 73.0542 V 85.2021 C 40.7123 85.9178 40.2572 86.5529 39.5795 86.7804 C 34.4606 88.5104 29.9246 91.3352 26.0854 95.1744 C 22.251 99.0088 19.4262 103.549 17.6914 108.668 C 17.4639 109.346 16.8288 109.801 16.1131 109.801 H 3.96521 C 3.51967 109.801 3.09307 109.626 2.78499 109.318 L 2.78974 109.313 Z M 37.3802 75.2439 C 30.0242 77.4526 23.3032 81.4672 17.8383 86.9321 C 12.3734 92.3969 8.36366 99.1179 6.15021 106.474 H 14.9376 C 16.8572 101.327 19.8101 96.7433 23.7298 92.8235 C 27.6448 88.9085 32.2329 85.9557 37.3802 84.0313 V 75.2439 Z" stroke-linecap="round"/>
</g>
<g transform="matrix(4.1135 0 0 4.1135 503.4313 725.7305)" id="550955">
<path style="stroke: none; stroke-width: 1; stroke-dasharray: none; stroke-linecap: butt; stroke-dashoffset: 0; stroke-linejoin: miter; stroke-miterlimit: 4; is-custom-font: none; font-file-url: none; fill: rgb(255,255,255); fill-rule: nonzero; opacity: 1;" transform=" translate(-50.8344, -119.9157)" d="M 77.9314 92.8188 C 62.9918 77.8792 38.6771 77.8744 23.7375 92.8188 C 8.79315 107.763 8.79789 132.073 23.7375 147.013 C 38.6771 161.952 62.9871 161.957 77.9314 147.013 C 92.8757 132.068 92.871 107.758 77.9314 92.8188 Z" stroke-linecap="round"/>
</g>
<g transform="matrix(4.1135 0 0 4.1135 503.3943 711.286)" id="884381">
<path style="stroke: none; stroke-width: 1; stroke-dasharray: none; stroke-linecap: butt; stroke-dashoffset: 0; stroke-linejoin: miter; stroke-miterlimit: 4; is-custom-font: none; font-file-url: none; fill: rgb(17,10,29); fill-rule: nonzero; opacity: 1;" transform=" translate(-50.8254, -116.404)" d="M 38.7106 131.936 C 37.502 131.945 36.4166 131.187 36.0043 130.049 L 31.4115 117.408 C 31.1176 117.551 30.8048 117.66 30.4872 117.74 C 30.1128 117.835 29.7336 117.882 29.3497 117.882 C 29.1269 117.882 28.9089 117.873 28.6956 117.845 C 26.302 117.541 24.4868 115.489 24.4725 113.072 C 24.4536 110.398 26.6148 108.209 29.288 108.19 C 31.9612 108.171 34.151 110.332 34.1652 113.005 C 34.1652 113.621 34.0609 114.214 33.8429 114.768 C 33.7244 115.072 33.5775 115.361 33.4069 115.636 L 42.1422 119.864 L 48.8252 110.18 C 48.5456 110.062 48.2754 109.915 48.0194 109.74 C 47.536 109.413 47.1141 109.005 46.7729 108.526 C 46.1946 107.711 45.8818 106.749 45.8771 105.753 C 45.8581 103.08 48.0194 100.891 50.6926 100.872 C 50.8111 100.872 50.9344 100.872 51.0529 100.881 C 53.4464 101.042 55.3802 102.962 55.5556 105.355 C 55.6362 106.488 55.3376 107.574 54.693 108.498 C 54.3517 108.981 53.9346 109.394 53.4559 109.721 C 53.2047 109.896 52.9345 110.043 52.6549 110.161 L 59.4564 119.745 L 68.0495 115.446 C 67.8883 115.138 67.7604 114.816 67.6656 114.479 C 67.5518 114.072 67.4902 113.645 67.4902 113.214 C 67.4902 113.019 67.4997 112.825 67.5186 112.636 C 67.7935 110.199 69.8506 108.351 72.301 108.337 C 74.9742 108.318 77.164 110.479 77.1782 113.152 C 77.1971 115.702 75.2159 117.845 72.6707 118.02 L 72.3674 118.029 C 71.8744 118.029 71.391 117.963 70.9218 117.821 C 70.6184 117.726 70.3245 117.608 70.0496 117.456 L 65.7365 129.85 C 65.3431 130.992 64.2624 131.76 63.0538 131.77 L 38.7106 131.931 V 131.936 Z" stroke-linecap="round"/>
</g>
<g transform="matrix(4.1135 0 0 4.1135 503.7167 793.0242)" id="96055">
<path style="stroke: none; stroke-width: 1; stroke-dasharray: none; stroke-linecap: butt; stroke-dashoffset: 0; stroke-linejoin: miter; stroke-miterlimit: 4; is-custom-font: none; font-file-url: none; fill: rgb(17,10,29); fill-rule: nonzero; opacity: 1;" transform=" translate(-50.9036, -136.2745)" d="M 64.6503 133.593 L 37.1226 133.776 C 35.963 133.784 35.0292 134.73 35.0369 135.889 L 35.0434 136.871 C 35.0511 138.03 35.9974 138.964 37.157 138.956 L 64.6846 138.774 C 65.8442 138.766 66.7781 137.82 66.7704 136.66 L 66.7639 135.679 C 66.7562 134.519 65.8099 133.586 64.6503 133.593 Z" stroke-linecap="round"/>
</g>
<g transform="matrix(4.1135 0 0 4.1135 460.8596 698.31)" id="937909">
<path style="stroke: none; stroke-width: 1; stroke-dasharray: none; stroke-linecap: butt; stroke-dashoffset: 0; stroke-linejoin: miter; stroke-miterlimit: 4; is-custom-font: none; font-file-url: none; fill: rgb(17,10,29); fill-rule: nonzero; opacity: 1;" transform=" translate(-40.485, -113.2495)" d="M 40.8732 116.977 C 40.5746 116.977 40.2713 116.911 39.9964 116.778 L 37.8492 115.74 C 36.9155 115.285 36.4889 114.181 36.8776 113.219 L 37.8635 110.764 C 38.1668 110.015 38.8825 109.526 39.6883 109.522 C 40.0343 109.522 40.3755 109.607 40.6788 109.782 L 43.2383 111.242 C 43.717 111.512 44.063 111.982 44.1862 112.522 C 44.3095 113.062 44.2005 113.631 43.8876 114.086 L 42.4847 116.119 C 42.1197 116.65 41.513 116.973 40.8684 116.973 L 40.8732 116.977 Z" stroke-linecap="round"/>
</g>
<g transform="matrix(4.1135 0 0 4.1135 545.6963 697.7362)" id="941118">
<path style="stroke: none; stroke-width: 1; stroke-dasharray: none; stroke-linecap: butt; stroke-dashoffset: 0; stroke-linejoin: miter; stroke-miterlimit: 4; is-custom-font: none; font-file-url: none; fill: rgb(17,10,29); fill-rule: nonzero; opacity: 1;" transform=" translate(-61.1088, -113.11)" d="M 60.6919 116.845 C 60.0473 116.845 59.4359 116.537 59.0663 116.01 L 57.6775 114.053 C 57.3552 113.603 57.2415 113.034 57.3552 112.494 C 57.469 111.953 57.8102 111.479 58.2889 111.2 L 60.9289 109.65 C 61.2275 109.474 61.5688 109.38 61.9148 109.375 C 62.7206 109.37 63.4458 109.849 63.7586 110.593 L 64.7539 112.977 C 65.152 113.934 64.7397 115.048 63.8155 115.513 L 61.5688 116.636 C 61.2987 116.769 60.9953 116.845 60.6967 116.845 H 60.6919 Z" stroke-linecap="round"/>
</g>
</svg>