<svg width="320" height="50" viewBox="0 0 320 50" fill="none" xmlns="http://www.w3.org/2000/svg">
<g opacity="0.2">
<path d="M344.411 49.8329C330.905 49.8329 319.92 38.843 319.92 25.3422C319.92 11.8415 330.91 0.851562 344.411 0.851562C357.912 0.851562 368.902 11.8415 368.902 25.3422C368.902 38.843 357.912 49.8329 344.411 49.8329ZM344.411 2.48255C331.805 2.48255 321.551 12.7367 321.551 25.3422C321.551 37.9477 331.805 48.2019 344.411 48.2019C357.016 48.2019 367.271 37.9477 367.271 25.3422C367.271 12.7367 357.016 2.48255 344.411 2.48255Z" fill="#9DADF2"/>
<path d="M324.093 38.3132C324.057 38.3132 324.026 38.3132 323.995 38.308C323.743 38.2772 323.521 38.1331 323.393 37.917C321.119 34.1251 319.92 29.7775 319.92 25.3424C319.92 20.9073 321.119 16.5597 323.393 12.7677C323.521 12.5517 323.743 12.4076 323.995 12.3767C324.247 12.3458 324.494 12.4333 324.674 12.6083L328.883 16.8169C329.13 17.0639 329.191 17.4446 329.037 17.7534C327.864 20.1252 327.267 22.6772 327.267 25.3372C327.267 27.9972 327.864 30.5492 329.037 32.9211C329.191 33.235 329.13 33.6157 328.883 33.8575L324.674 38.0662C324.52 38.2206 324.314 38.308 324.098 38.308L324.093 38.3132ZM324.273 14.5222C322.487 17.8357 321.551 21.5556 321.551 25.3424C321.551 29.1292 322.487 32.8491 324.273 36.1625L327.319 33.1166C326.202 30.6675 325.636 28.0538 325.636 25.3424C325.636 22.6309 326.202 20.0172 327.319 17.5681L324.273 14.5222Z" fill="#9DADF2"/>
<path d="M283.949 1.00835C297.455 1.00835 308.445 11.9983 308.445 25.5042C308.445 39.0101 297.455 50 283.949 50C270.443 50 259.453 39.0101 259.453 25.5042C259.453 11.9983 270.443 1.00835 283.949 1.00835ZM283.949 48.2352C296.482 48.2352 306.68 38.0376 306.68 25.5042C306.68 12.9707 296.482 2.77312 283.949 2.77312C271.415 2.77312 261.218 12.9707 261.218 25.5042C261.218 38.0376 271.415 48.2352 283.949 48.2352Z" fill="#478BF9"/>
<path d="M224.07 1.00694C224.559 1.00694 224.95 1.40309 224.95 1.88673C224.95 2.37037 224.554 2.76655 224.07 2.76655C211.537 2.76655 201.339 12.9641 201.339 25.4976C201.339 38.0311 211.537 48.2287 224.07 48.2287C224.559 48.2287 224.95 48.6248 224.95 49.1085C224.95 49.5921 224.554 49.9883 224.07 49.9883C210.564 49.9883 199.574 38.9984 199.574 25.4925C199.574 11.9866 210.564 0.996635 224.07 0.996635V1.00694Z" fill="#478BF9"/>
<path d="M279.236 21.1715C279.236 22.0719 279.848 22.8539 280.723 23.07L282.385 23.4868V19.2112H281.201C280.121 19.2112 279.241 20.091 279.241 21.1715H279.236Z" fill="#478BF9"/>
<path d="M285.522 31.7858H286.706C287.786 31.7858 288.666 30.906 288.666 29.8256C288.666 28.9252 288.054 28.1431 287.179 27.927L285.517 27.5103V31.7858H285.522Z" fill="#478BF9"/>
<path d="M283.954 5.56665C272.964 5.56665 264.017 14.5088 264.017 25.5039C264.017 36.499 272.959 45.4412 283.954 45.4412C294.949 45.4412 303.891 36.499 303.891 25.5039C303.891 14.5088 294.949 5.56665 283.954 5.56665ZM291.816 22.3551H288.672V20.7807C288.672 19.9163 287.967 19.2063 287.098 19.2063H285.523V24.2691L287.946 24.8762C290.221 25.4473 291.81 27.4797 291.81 29.8258C291.81 32.6402 289.521 34.9298 286.707 34.9298H285.523V38.9121H282.379V34.9298H280.805C278.202 34.9298 276.087 32.8151 276.087 30.2117V28.6373H279.231V30.2117C279.231 31.0761 279.936 31.7861 280.805 31.7861H282.379V26.7233L279.956 26.1162C277.682 25.5451 276.092 23.5128 276.092 21.1666C276.092 18.3522 278.382 16.0627 281.196 16.0627H282.379V12.0804H285.523V16.0627H287.098C289.701 16.0627 291.816 18.1773 291.816 20.7807V22.3551Z" fill="#478BF9"/>
<path d="M223.694 0.977932L282.812 0.977932C283.301 0.977932 283.692 1.37409 283.692 1.85772C283.692 2.34136 283.295 2.73755 282.812 2.73755L223.694 2.73755C223.206 2.73755 222.815 2.34136 222.815 1.85772C222.815 1.37409 223.211 0.977932 223.694 0.977932Z" fill="#478BF9"/>
<path d="M223.566 48.2021L282.683 48.2021C283.172 48.2021 283.563 48.5982 283.563 49.0819C283.563 49.5655 283.166 49.9617 282.683 49.9617L223.566 49.9617C223.077 49.9617 222.686 49.5655 222.686 49.0819C222.686 48.5982 223.082 48.2021 223.566 48.2021Z" fill="#478BF9"/>
<path d="M159.953 49.9153C153.676 49.9153 147.404 47.528 142.624 42.7482C133.07 33.1937 133.07 17.6503 142.624 8.09588C147.255 3.46529 153.408 0.918457 159.953 0.918457C166.497 0.918457 172.651 3.46529 177.282 8.09588C186.836 17.6503 186.836 33.1937 177.282 42.7482C172.507 47.5228 166.23 49.9153 159.953 49.9153ZM143.91 41.4619C152.755 50.3063 167.146 50.3063 175.99 41.4619C184.835 32.6175 184.835 18.2266 175.99 9.38216C171.704 5.09629 166.009 2.73984 159.948 2.73984C153.887 2.73984 148.191 5.10143 143.905 9.38216C135.061 18.2266 135.061 32.6175 143.905 41.4619H143.91Z" fill="#9DADF2"/>
<path d="M159.629 34.5879C159.716 34.7989 159.922 34.9223 160.138 34.9223C160.21 34.9223 160.282 34.9069 160.354 34.8811C162.083 34.1557 163.657 33.034 164.903 31.6346C165.103 31.4082 165.083 31.0584 164.856 30.8577C164.63 30.657 164.28 30.6776 164.079 30.904C162.942 32.1851 161.507 33.209 159.927 33.8676C159.649 33.9859 159.516 34.3101 159.634 34.5879H159.629Z" fill="#9DADF2"/>
<path d="M169.291 16.9507L160.153 13.2976C160.019 13.2462 159.875 13.2462 159.741 13.2976L150.604 16.9507C150.393 17.033 150.259 17.2336 150.259 17.46V24.0046C150.269 30.0449 154.087 35.5039 159.757 37.5825C159.818 37.6031 159.88 37.6134 159.947 37.6134C160.014 37.6134 160.076 37.6031 160.137 37.5825C165.807 35.4987 169.625 30.0449 169.635 24.0046V17.46C169.635 17.2336 169.501 17.033 169.291 16.9507ZM168.534 24.0046C168.524 29.4995 165.077 34.5057 159.952 36.4763C154.828 34.5057 151.375 29.4995 151.365 24.0046V17.8356L159.952 14.4038L168.534 17.8356V24.0046Z" fill="#9DADF2"/>
<path d="M156.135 17.8098C156.001 17.7532 155.852 17.7532 155.713 17.8098L153.536 18.6793C153.325 18.7617 153.192 18.9623 153.192 19.1887V21.5091C153.192 21.8127 153.439 22.0596 153.742 22.0596C154.046 22.0596 154.293 21.8127 154.293 21.5091V19.5643L156.119 18.8337C156.258 18.7771 156.361 18.6742 156.423 18.5353C156.479 18.4015 156.479 18.2523 156.423 18.1134C156.366 17.9745 156.263 17.8715 156.129 17.8098H156.135Z" fill="#9DADF2"/>
<path d="M173.87 11.5069C170.156 7.787 165.211 5.74438 159.953 5.74438C154.694 5.74438 149.755 7.79214 146.035 11.5069C138.364 19.1783 138.364 31.6654 146.035 39.3419C149.873 43.1802 154.911 45.0941 159.953 45.0941C164.995 45.0941 170.032 43.175 173.87 39.3419C181.542 31.6706 181.542 19.1834 173.87 11.5069ZM171.148 24.0043C171.164 30.9862 166.703 37.0935 160.051 39.2081C159.989 39.2287 159.922 39.2287 159.855 39.2081C153.202 37.0935 148.742 30.9862 148.757 24.0043V16.2815C148.757 16.1529 148.834 16.0346 148.958 15.9832L159.834 11.6355C159.87 11.6201 159.912 11.615 159.953 11.615C159.994 11.615 160.035 11.6201 160.071 11.6355L170.948 15.9883C171.071 16.0346 171.148 16.1529 171.148 16.2867V24.0095V24.0043Z" fill="#9DADF2"/>
<path d="M97.3757 49.9074C83.8698 49.9074 72.885 38.9174 72.885 25.4167C72.885 11.916 83.8749 0.926025 97.3757 0.926025C110.876 0.926025 121.866 11.916 121.866 25.4167C121.866 38.9174 110.876 49.9074 97.3757 49.9074ZM97.3757 2.55701C84.7702 2.55701 74.516 12.8112 74.516 25.4167C74.516 38.0222 84.7702 48.2764 97.3757 48.2764C109.981 48.2764 120.235 38.0222 120.235 25.4167C120.235 12.8112 109.981 2.55701 97.3757 2.55701Z" fill="#7DDACF"/>
<path d="M113.358 7.94108L105.776 15.5229L107.268 17.0146L114.849 9.43273L113.358 7.94108Z" fill="#7DDACF"/>
<path d="M87.2576 34.0402L79.6758 41.6221L81.1674 43.1137L88.7493 35.5318L87.2576 34.0402Z" fill="#7DDACF"/>
<path d="M107.49 34.0438L105.998 35.5354L113.58 43.1173L115.072 41.6256L107.49 34.0438Z" fill="#7DDACF"/>
<path d="M81.1657 7.71638L79.6741 9.20801L87.2523 16.7863L88.7439 15.2946L81.1657 7.71638Z" fill="#7DDACF"/>
<path d="M103.349 26.0751C103.843 25.5812 103.843 24.7837 103.349 24.2949L102.299 23.2505C101.806 22.7565 101.008 22.7565 100.519 23.2505L99.9533 23.8164L99.2999 23.163C98.806 22.6691 98.0085 22.6691 97.5197 23.163L96.9537 23.7341L96.3003 23.0755C95.8064 22.5816 95.0089 22.5816 94.5201 23.0755L91.0471 26.5485C91.0214 26.5742 91.0214 26.6154 91.0471 26.6462C91.5102 27.1093 92.2665 27.1093 92.7347 26.6462L94.9728 24.4081C95.2147 24.1663 95.6057 24.1663 95.8475 24.4081L96.0122 24.5728C96.043 24.6036 96.043 24.6499 96.0122 24.6808L94.1445 26.5485C94.1188 26.5742 94.1188 26.6154 94.1445 26.6462C94.6075 27.1093 95.3639 27.1093 95.8321 26.6462L97.9776 24.5007C98.2194 24.2589 98.6104 24.2589 98.8523 24.5007L99.0169 24.6654C99.0426 24.6911 99.0426 24.7323 99.0169 24.7631L97.2161 26.5639C97.1904 26.5896 97.1904 26.6308 97.2161 26.6617C97.6792 27.1247 98.4355 27.1247 98.9037 26.6617L100.977 24.5882C101.219 24.3464 101.61 24.3464 101.852 24.5882L102.207 24.9432C102.346 25.0821 102.346 25.3136 102.207 25.4526L102.15 25.5091C102.011 25.6481 101.78 25.6481 101.641 25.5091L101.183 25.0513C101.157 25.0255 101.116 25.0255 101.085 25.0513L100.293 25.8436C100.267 25.8693 100.267 25.9105 100.293 25.9414L101.008 26.6565C101.502 27.1505 102.299 27.1505 102.788 26.6565L103.354 26.0905L103.349 26.0751Z" fill="#7DDACF"/>
<path d="M97.3763 6.63696C87.0038 6.63696 78.5967 15.0441 78.5967 25.4166C78.5967 35.7891 87.0038 44.1962 97.3763 44.1962C107.749 44.1962 116.156 35.7891 116.156 25.4166C116.156 15.0441 107.749 6.63696 97.3763 6.63696ZM98.143 12.4355C101.158 12.6104 103.895 13.8144 106.015 15.6975L103.303 18.409C101.889 17.2102 100.103 16.4333 98.143 16.2686V12.4355ZM96.6148 12.4355V16.2686C94.6546 16.4281 92.8692 17.2102 91.4543 18.409L88.7428 15.6975C90.8626 13.8144 93.5998 12.6104 96.6148 12.4355ZM87.6624 16.778L90.3738 19.4894C89.175 20.9044 88.3981 22.6897 88.2335 24.65H84.4004C84.5753 21.6349 85.7793 18.8978 87.6624 16.778ZM84.4004 26.1781H88.2335C88.393 28.1384 89.175 29.9237 90.3738 31.3386L87.6624 34.0501C85.7793 31.9303 84.5753 29.1931 84.4004 26.1781ZM96.6148 38.3925C93.5998 38.2176 90.8626 37.0136 88.7428 35.1305L91.4543 32.4191C92.8692 33.6179 94.6546 34.3948 96.6148 34.5594V38.3925ZM89.4837 25.4114C89.4837 21.0535 93.0184 17.5189 97.3763 17.5189C101.734 17.5189 105.269 21.0535 105.269 25.4114C105.269 29.7693 101.734 33.304 97.3763 33.304C93.0184 33.304 89.4837 29.7693 89.4837 25.4114ZM98.143 38.3925V34.5594C100.103 34.3999 101.889 33.6179 103.303 32.4191L106.015 35.1305C103.895 37.0136 101.158 38.2176 98.143 38.3925ZM107.095 34.0501L104.384 31.3386C105.583 29.9237 106.36 28.1384 106.524 26.1781H110.357C110.182 29.1931 108.979 31.9303 107.095 34.0501ZM106.524 24.65C106.365 22.6897 105.583 20.9044 104.384 19.4894L107.095 16.778C108.979 18.8978 110.182 21.6349 110.357 24.65H106.524Z" fill="#7DDACF"/>
<path d="M36.3464 49.8329C22.8405 49.8329 11.8557 38.843 11.8557 25.3422C11.8557 11.8415 22.8456 0.851562 36.3464 0.851562C49.8471 0.851562 60.8371 11.8415 60.8371 25.3422C60.8371 38.843 49.8471 49.8329 36.3464 49.8329ZM36.3464 2.48255C23.7409 2.48255 13.4867 12.7367 13.4867 25.3422C13.4867 37.9477 23.7409 48.2019 36.3464 48.2019C48.9519 48.2019 59.2061 37.9477 59.2061 25.3422C59.2061 12.7367 48.9519 2.48255 36.3464 2.48255Z" fill="#9DADF2"/>
<path d="M44.292 10.051C44.1685 10.051 44.045 10.0253 43.9318 9.96867C41.56 8.79558 39.008 8.19875 36.348 8.19875C33.688 8.19875 31.136 8.79558 28.7641 9.96867C28.4502 10.123 28.0746 10.0613 27.8277 9.81432L23.619 5.60563C23.4389 5.42555 23.3566 5.17858 23.3875 4.92647C23.4183 4.67436 23.5624 4.45313 23.7785 4.32451C27.5704 2.05037 31.918 0.851562 36.3531 0.851562C40.7882 0.851562 45.1358 2.05552 48.9278 4.32451C49.1438 4.45313 49.2879 4.67436 49.3188 4.92647C49.3497 5.17858 49.2622 5.42555 49.0872 5.60563L44.8786 9.81432C44.7191 9.96867 44.5133 10.051 44.2972 10.051H44.292ZM36.348 6.56776C39.0594 6.56776 41.6731 7.13373 44.1222 8.25022L47.1681 5.2043C43.8547 3.41895 40.1348 2.48255 36.348 2.48255C32.5612 2.48255 28.8413 3.41895 25.5278 5.2043L28.5737 8.25022C31.0228 7.13373 33.6365 6.56776 36.348 6.56776Z" fill="#9DADF2"/>
<path d="M36.3473 49.8329C31.9122 49.8329 27.5646 48.6289 23.7726 46.3599C23.5565 46.2313 23.4125 46.01 23.3816 45.7579C23.3507 45.5058 23.4382 45.2589 23.6131 45.0788L27.8218 40.8701C28.0688 40.6231 28.4495 40.5614 28.7582 40.7157C31.1301 41.8888 33.6821 42.4857 36.3421 42.4857C39.0021 42.4857 41.5541 41.8888 43.926 40.7157C44.2399 40.5614 44.6154 40.6231 44.8624 40.8701L49.0711 45.0788C49.2512 45.2589 49.3335 45.5058 49.3026 45.7579C49.2718 46.01 49.1277 46.2313 48.9116 46.3599C45.1197 48.634 40.7721 49.8329 36.337 49.8329H36.3473ZM25.5271 45.4801C28.8406 47.2655 32.5605 48.2019 36.3473 48.2019C40.1341 48.2019 43.854 47.2655 47.1674 45.4801L44.1215 42.4342C41.6724 43.5507 39.0587 44.1167 36.3473 44.1167C33.6358 44.1167 31.0221 43.5507 28.573 42.4342L25.5271 45.4801Z" fill="#9DADF2"/>
<path d="M56.6653 38.3131C56.4492 38.3131 56.2434 38.2308 56.089 38.0765L51.8803 33.8678C51.6334 33.6208 51.5716 33.2401 51.726 32.9314C52.8991 30.5595 53.4959 28.0075 53.4959 25.3475C53.4959 22.6875 52.8991 20.1355 51.726 17.7636C51.5716 17.4498 51.6334 17.069 51.8803 16.8272L56.089 12.6185C56.2691 12.4384 56.5161 12.3561 56.7682 12.387C57.0203 12.4178 57.2415 12.5619 57.3702 12.778C59.6443 16.5699 60.8431 20.9176 60.8431 25.3526C60.8431 29.7877 59.6443 34.1353 57.3702 37.9273C57.2415 38.1434 57.0203 38.2874 56.7682 38.3183C56.7322 38.3183 56.7013 38.3183 56.6653 38.3183V38.3131ZM53.4393 33.1166L56.4852 36.1625C58.2706 32.8491 59.207 29.1291 59.207 25.3423C59.207 21.5555 58.2706 17.8356 56.4852 14.5222L53.4393 17.5681C54.5558 20.0172 55.1218 22.6309 55.1218 25.3423C55.1218 28.0538 54.5558 30.6675 53.4393 33.1166Z" fill="#9DADF2"/>
<path d="M16.0284 38.3132C15.9924 38.3132 15.9615 38.3132 15.9306 38.308C15.6785 38.2772 15.4573 38.1331 15.3287 37.917C13.0545 34.1251 11.8557 29.7775 11.8557 25.3424C11.8557 20.9073 13.0545 16.5597 15.3287 12.7677C15.4573 12.5517 15.6785 12.4076 15.9306 12.3767C16.1827 12.3458 16.4297 12.4333 16.6098 12.6083L20.8185 16.8169C21.0654 17.0639 21.1272 17.4446 20.9728 17.7534C19.7997 20.1252 19.2029 22.6772 19.2029 25.3372C19.2029 27.9972 19.7997 30.5492 20.9728 32.9211C21.1272 33.235 21.0654 33.6157 20.8185 33.8575L16.6098 38.0662C16.4554 38.2206 16.2496 38.308 16.0335 38.308L16.0284 38.3132ZM16.2084 14.5222C14.4231 17.8357 13.4867 21.5556 13.4867 25.3424C13.4867 29.1292 14.4231 32.8491 16.2084 36.1625L19.2544 33.1166C18.1379 30.6675 17.5719 28.0538 17.5719 25.3424C17.5719 22.6309 18.1379 20.0172 19.2544 17.5681L16.2084 14.5222Z" fill="#9DADF2"/>
<path d="M36.347 6.56274C25.9951 6.56274 17.5674 14.9853 17.5674 25.3424C17.5674 35.6995 25.9899 44.122 36.347 44.122C46.7041 44.122 55.1266 35.6995 55.1266 25.3424C55.1266 14.9853 46.7041 6.56274 36.347 6.56274ZM46.9151 19.1734C47.8052 20.6963 48.3454 22.3582 48.5203 24.123C48.5255 24.195 48.4946 24.2619 48.4328 24.2979C47.09 25.1211 45.886 26.1296 44.8467 27.3078C44.8004 27.3644 44.7232 27.385 44.6564 27.3592L42.3359 26.6029C42.269 26.5823 42.2227 26.5258 42.2124 26.4537C41.95 24.5346 41.3532 22.6978 40.4374 20.9896C40.4065 20.9279 40.4117 20.8558 40.4528 20.7992L41.8883 18.8235C41.9243 18.7772 41.9809 18.7463 42.0375 18.7463C42.0529 18.7463 42.0632 18.7463 42.0787 18.7463C43.6119 19.0859 45.1863 19.1991 46.7504 19.0705C46.8225 19.0653 46.8893 19.1014 46.9253 19.1631L46.9151 19.1734ZM40.9467 26.7778C40.9519 26.8293 40.9364 26.8808 40.9056 26.9168C39.6862 28.3214 38.1324 29.4482 36.419 30.1685C36.3727 30.1891 36.3264 30.1891 36.2801 30.1685C34.5668 29.443 33.013 28.3162 31.7936 26.9168C31.7627 26.8808 31.7473 26.8293 31.7524 26.7778C31.9891 24.9153 32.5705 23.1351 33.4709 21.4887C33.4966 21.4424 33.5378 21.4115 33.5892 21.4012C34.4948 21.2109 35.4209 21.1131 36.3522 21.1131C37.2834 21.1131 38.2095 21.2109 39.1151 21.4012C39.1665 21.4115 39.2077 21.4424 39.2334 21.4887C40.1338 23.1351 40.7101 24.9153 40.9519 26.7778H40.9467ZM40.6689 14.0077C40.6689 14.0077 40.7306 13.9563 40.7924 13.9563C40.813 13.9563 40.8387 13.9563 40.8644 13.9717C42.7578 14.7229 44.4505 15.9577 45.7677 17.5373C45.8346 17.6144 45.8088 17.6968 45.7934 17.7276C45.7831 17.7533 45.7368 17.8357 45.6288 17.8357C44.4609 17.8511 43.298 17.7173 42.1713 17.4498C42.125 17.4395 42.0838 17.4086 42.0581 17.3675C41.4561 16.3745 40.9725 15.3043 40.6226 14.1929C40.5917 14.0952 40.6483 14.0283 40.6741 14.0077H40.6689ZM33.7487 13.3903C35.4518 13.025 37.2474 13.025 38.9504 13.3903C39.0173 13.4057 39.0739 13.4572 39.0894 13.5241C39.4547 15.0522 40.0463 16.5134 40.8438 17.8665C40.8798 17.9283 40.8747 18.0054 40.8336 18.0672L39.4083 20.0326C39.3672 20.0892 39.2952 20.1201 39.2283 20.1047C37.3452 19.7239 35.354 19.7239 33.4709 20.1047C33.404 20.1201 33.332 20.0892 33.2908 20.0326L31.8656 18.0672C31.8245 18.0106 31.8193 17.9283 31.8553 17.8665C32.6528 16.5134 33.2445 15.0522 33.6098 13.5241C33.6252 13.4572 33.6818 13.4057 33.7487 13.3903ZM26.9315 17.5373C28.2486 15.9526 29.9414 14.7177 31.8348 13.9717C31.8605 13.9614 31.8862 13.9563 31.9068 13.9563C31.9737 13.9563 32.0148 13.9923 32.0303 14.0077C32.056 14.0334 32.1126 14.0952 32.0817 14.1929C31.7319 15.3094 31.2482 16.3745 30.6462 17.3675C30.6205 17.4086 30.5794 17.4395 30.533 17.4498C29.4063 17.7173 28.2435 17.8511 27.0756 17.8357C26.9675 17.8357 26.9212 17.7533 26.9109 17.7276C26.8955 17.6968 26.8697 17.6144 26.9366 17.5373H26.9315ZM25.7841 19.1734C25.815 19.1168 25.8767 19.0808 25.9436 19.0808C25.9436 19.0808 25.9539 19.0808 25.959 19.0808C27.5283 19.2043 29.1027 19.0962 30.6308 18.7566C30.7028 18.7412 30.7749 18.7669 30.816 18.8287L32.2515 20.8044C32.2927 20.861 32.2978 20.9382 32.2669 20.9947C31.3511 22.7029 30.7543 24.5397 30.4919 26.4588C30.4816 26.5257 30.4353 26.5823 30.3684 26.6081L28.048 27.3644C27.9811 27.385 27.9039 27.3644 27.8576 27.313C26.8183 26.1347 25.6143 25.1263 24.2715 24.303C24.2149 24.267 24.1788 24.2002 24.184 24.1281C24.3589 22.3634 24.8992 20.6964 25.7893 19.1785L25.7841 19.1734ZM26.3449 31.8509C26.3141 31.9487 26.2266 31.9693 26.1906 31.9744C26.1546 31.9744 26.0722 31.9744 26.0156 31.8921C24.9197 30.1685 24.2715 28.1722 24.1428 26.1244C24.1377 26.0215 24.2046 25.9701 24.2354 25.9546C24.2663 25.9392 24.3486 25.9032 24.431 25.9649C25.3828 26.6389 26.2472 27.4313 27.0035 28.3111C27.0344 28.3471 27.0498 28.3934 27.0447 28.4449C26.952 29.6025 26.7154 30.7499 26.3398 31.8561L26.3449 31.8509ZM31.4283 36.5484C29.823 35.8435 28.4081 34.8094 27.2247 33.4819C27.1784 33.4305 27.163 33.3533 27.1887 33.2916C27.7907 31.8406 28.1715 30.3125 28.3207 28.7484C28.3258 28.6764 28.3772 28.6147 28.4441 28.5941L30.7389 27.848C30.7389 27.848 30.7749 27.8377 30.7955 27.8377C30.8469 27.8377 30.8932 27.8583 30.9292 27.8995C32.2155 29.3401 33.8259 30.5132 35.5907 31.2901C35.6576 31.321 35.6987 31.3827 35.6987 31.4548V33.8678C35.6987 33.9398 35.6576 34.0067 35.5907 34.0325C34.1501 34.655 32.8123 35.4937 31.6135 36.5175C31.5621 36.5639 31.4849 36.5741 31.4231 36.5433L31.4283 36.5484ZM39.5215 37.0578C39.5164 37.0938 39.4907 37.1761 39.3878 37.2018C37.4018 37.706 35.3025 37.706 33.3165 37.2018C33.2188 37.1761 33.1879 37.0938 33.1828 37.0578C33.1776 37.0218 33.1673 36.9394 33.2548 36.8726C34.1912 36.178 35.2099 35.5966 36.2853 35.1489C36.3316 35.1283 36.3779 35.1283 36.4242 35.1489C37.4944 35.5966 38.5131 36.178 39.4547 36.8726C39.537 36.9343 39.5318 37.0218 39.5267 37.0578H39.5215ZM45.4847 33.4871C44.3013 34.8145 42.8864 35.8435 41.2812 36.5484C41.2143 36.5793 41.1423 36.5638 41.0908 36.5227C39.892 35.4988 38.5594 34.6602 37.1136 34.0376C37.0467 34.0067 37.0056 33.945 37.0056 33.873V31.4599C37.0056 31.3879 37.0467 31.321 37.1136 31.2953C38.8784 30.5183 40.494 29.3452 41.7751 27.9046C41.8111 27.8635 41.8574 27.8429 41.9089 27.8429C41.9294 27.8429 41.9449 27.8429 41.9654 27.8532L44.2602 28.5992C44.3271 28.6198 44.3785 28.6815 44.3837 28.7536C44.5329 30.3177 44.9136 31.8406 45.5156 33.2967C45.5413 33.3584 45.531 33.4356 45.4796 33.4871H45.4847ZM46.6887 31.8972C46.6321 31.9847 46.5446 31.9847 46.5137 31.9796C46.4777 31.9796 46.3954 31.9538 46.3594 31.8561C45.9889 30.7499 45.7523 29.6025 45.6545 28.4449C45.6545 28.3986 45.6648 28.3471 45.6956 28.3111C46.452 27.4313 47.3164 26.6441 48.2682 25.9649C48.3042 25.9392 48.3402 25.9289 48.3711 25.9289C48.4123 25.9289 48.4431 25.9443 48.4637 25.9546C48.4946 25.9701 48.5666 26.0215 48.5564 26.1244C48.4277 28.1722 47.7794 30.1685 46.6835 31.8921L46.6887 31.8972Z" fill="#9DADF2"/>
<path d="M-24.116 1.00835C-10.6101 1.00835 0.379864 11.9983 0.379864 25.5042C0.379864 39.0101 -10.6101 50 -24.116 50C-37.6219 50 -48.6118 39.0101 -48.6118 25.5042C-48.6118 11.9983 -37.6219 1.00835 -24.116 1.00835ZM-24.116 48.2352C-11.5825 48.2352 -1.3849 38.0376 -1.3849 25.5042C-1.3849 12.9707 -11.5825 2.77312 -24.116 2.77312C-36.6495 2.77312 -46.8471 12.9707 -46.8471 25.5042C-46.8471 38.0376 -36.6495 48.2352 -24.116 48.2352Z" fill="#478BF9"/>
</g>
</svg>
