<svg width="320" height="52" viewBox="0 0 320 52" fill="none" xmlns="http://www.w3.org/2000/svg">
<g opacity="0.6">
<path d="M292.697 42.9399C283.063 33.3059 283.063 17.6319 292.697 7.99795C302.331 -1.63603 318.005 -1.63603 327.639 7.99795C337.273 17.6319 337.273 33.3059 327.639 42.9399C318.005 52.5739 302.331 52.5739 292.697 42.9399ZM326.475 9.16237C317.483 0.170337 302.854 0.170337 293.864 9.16237C284.872 18.1544 284.872 32.7834 293.864 41.7731C302.856 50.7652 317.485 50.7652 326.475 41.7731C335.467 32.7811 335.467 18.1521 326.475 9.16237Z" fill="white"/>
<path d="M326.741 20.228C326.655 20.1413 326.584 20.0312 326.544 19.9093C325.689 17.379 324.293 15.1369 322.395 13.2391C320.5 11.3437 318.255 9.94736 315.725 9.08986C315.39 8.97506 315.165 8.66346 315.165 8.30968V2.30484C315.165 2.05181 315.282 1.81283 315.481 1.65585C315.683 1.49888 315.943 1.445 316.187 1.50591C320.512 2.58833 324.471 4.83282 327.634 7.99807C330.797 11.1633 333.041 15.1205 334.124 19.4455C334.185 19.6915 334.128 19.9515 333.974 20.153C333.817 20.3545 333.578 20.4693 333.325 20.4693H327.32C327.095 20.4693 326.889 20.3779 326.737 20.2256L326.741 20.228ZM323.56 12.0747C325.495 14.0099 326.954 16.2779 327.906 18.8222H332.249C331.158 15.1861 329.173 11.8638 326.472 9.16249C323.77 6.46113 320.448 4.4767 316.814 3.38726V7.73098C319.359 8.67986 321.627 10.1395 323.562 12.077L323.56 12.0747Z" fill="white"/>
<path d="M292.696 42.9401C289.534 39.7772 287.287 35.8177 286.204 31.4927C286.143 31.2467 286.2 30.9866 286.354 30.7875C286.511 30.586 286.75 30.4712 287.003 30.4712H293.008C293.362 30.4712 293.676 30.6961 293.788 31.0311C294.643 33.5615 296.04 35.8036 297.937 37.7014C299.833 39.5968 302.077 40.9931 304.608 41.8506C304.943 41.9631 305.168 42.277 305.168 42.6308V48.6357C305.168 48.8887 305.051 49.1277 304.851 49.2846C304.65 49.4416 304.39 49.4955 304.144 49.4346C299.819 48.3522 295.862 46.1077 292.696 42.9448V42.9401ZM288.083 32.1159C289.175 35.7521 291.159 39.0743 293.861 41.7757C296.562 44.477 299.884 46.4615 303.521 47.5532V43.2095C300.976 42.2606 298.708 40.801 296.773 38.8658C294.838 36.9306 293.378 34.6626 292.427 32.1183H288.083V32.1159Z" fill="white"/>
<path d="M315.41 49.2141C315.256 49.0595 315.169 48.851 315.169 48.6308V42.6259C315.169 42.2721 315.394 41.9582 315.729 41.8457C318.259 40.9906 320.501 39.5942 322.399 37.6965C324.297 35.7987 325.691 33.5566 326.548 31.0262C326.661 30.6912 326.975 30.4663 327.329 30.4663H333.333C333.586 30.4663 333.825 30.5834 333.982 30.7826C334.139 30.9817 334.193 31.2441 334.132 31.4878C333.048 35.8128 330.803 39.7699 327.64 42.9352C324.477 46.1004 320.518 48.3449 316.193 49.4274C315.947 49.4883 315.687 49.432 315.488 49.2774C315.462 49.254 315.436 49.2329 315.413 49.2095L315.41 49.2141ZM316.816 43.207V47.5507C320.452 46.4589 323.774 44.4745 326.476 41.7731C329.177 39.0718 331.159 35.7495 332.253 32.1134H327.91C326.961 34.6577 325.501 36.9233 323.564 38.8609C321.628 40.7961 319.36 42.2581 316.816 43.207Z" fill="white"/>
<path d="M286.42 20.2279C286.397 20.2044 286.374 20.1787 286.355 20.1529C286.198 19.9537 286.144 19.6913 286.205 19.4453C287.287 15.1203 289.532 11.1609 292.697 7.99795C295.862 4.83504 299.819 2.5882 304.144 1.50579C304.39 1.44487 304.65 1.5011 304.85 1.65573C305.049 1.8127 305.166 2.05168 305.166 2.30472V8.30956C305.166 8.66333 304.941 8.97728 304.606 9.08974C302.076 9.94489 299.833 11.3413 297.936 13.239C296.04 15.1344 294.644 17.3789 293.786 19.9092C293.674 20.2443 293.36 20.4692 293.006 20.4692H287.001C286.781 20.4692 286.57 20.3825 286.418 20.2302L286.42 20.2279ZM303.519 3.38713C299.883 4.47892 296.56 6.46335 293.859 9.16471C291.158 11.8661 289.176 15.1883 288.082 18.8245H292.425C293.374 16.2801 294.834 14.0145 296.771 12.0769C298.707 10.1417 300.974 8.68208 303.519 7.73086V3.38713Z" fill="white"/>
<path d="M323.562 12.0746C316.177 4.68983 304.158 4.68749 296.773 12.0746C289.386 19.4618 289.388 31.4785 296.773 38.8633C304.158 46.2481 316.175 46.2504 323.562 38.8633C330.949 31.4761 330.947 19.4594 323.562 12.0746Z" fill="white"/>
<path d="M317.001 32.23L303.393 32.3203C302.82 32.3241 302.359 32.7918 302.362 33.365L302.366 33.85C302.369 34.4232 302.837 34.8848 303.41 34.881L317.018 34.7907C317.591 34.7869 318.052 34.3192 318.049 33.746L318.045 33.261C318.042 32.6878 317.574 32.2262 317.001 32.23Z" fill="#110A1D"/>
<path d="M305.247 24.0164C305.1 24.0164 304.95 23.9836 304.814 23.918L303.753 23.4049C303.291 23.18 303.08 22.6341 303.272 22.1585L303.76 20.9449C303.91 20.5747 304.263 20.3334 304.662 20.3311C304.833 20.3311 305.001 20.3732 305.151 20.4599L306.416 21.1815C306.653 21.3151 306.824 21.547 306.885 21.8141C306.946 22.0812 306.892 22.3623 306.737 22.5873L306.044 23.5924C305.864 23.8548 305.564 24.0141 305.245 24.0141L305.247 24.0164Z" fill="#110A1D"/>
<path d="M315.042 23.951C314.724 23.951 314.421 23.7987 314.239 23.5386L313.552 22.571C313.393 22.3484 313.337 22.0673 313.393 21.8002C313.449 21.5331 313.618 21.2988 313.854 21.1606L315.159 20.3944C315.307 20.3078 315.476 20.2609 315.647 20.2586C316.045 20.2562 316.403 20.4928 316.558 20.8607L317.05 22.0392C317.247 22.5124 317.043 23.063 316.586 23.2926L315.476 23.8479C315.342 23.9135 315.192 23.951 315.045 23.951H315.042Z" fill="#110A1D"/>
<path d="M304.178 31.4105C303.581 31.4152 303.045 31.0403 302.841 30.478L300.57 24.2295C300.425 24.2998 300.271 24.3537 300.114 24.3935C299.928 24.4404 299.741 24.4638 299.551 24.4638C299.441 24.4638 299.333 24.4591 299.228 24.4451C298.045 24.2951 297.147 23.2807 297.14 22.0858C297.131 20.7644 298.199 19.682 299.521 19.6726C300.842 19.6632 301.925 20.7316 301.932 22.053C301.932 22.3576 301.88 22.6504 301.772 22.9245C301.714 23.0745 301.641 23.2174 301.557 23.3533L305.875 25.4432L309.178 20.6566C309.04 20.598 308.906 20.5254 308.78 20.4387C308.541 20.2771 308.332 20.0756 308.164 19.8389C307.878 19.436 307.723 18.9604 307.721 18.4684C307.712 17.147 308.78 16.0645 310.101 16.0552C310.16 16.0552 310.221 16.0552 310.279 16.0599C311.463 16.1395 312.418 17.0884 312.505 18.2716C312.545 18.8315 312.397 19.368 312.079 19.8249C311.91 20.0639 311.704 20.2677 311.467 20.4294C311.343 20.516 311.21 20.5887 311.071 20.6473L314.433 25.3846L318.681 23.2596C318.601 23.1073 318.538 22.948 318.491 22.7816C318.435 22.5801 318.405 22.3693 318.405 22.1561C318.405 22.06 318.409 21.964 318.419 21.8702C318.554 20.666 319.571 19.7523 320.783 19.7452C322.104 19.7359 323.186 20.8042 323.193 22.1256C323.203 23.3861 322.223 24.4451 320.965 24.5318L320.815 24.5364C320.572 24.5364 320.333 24.5036 320.101 24.4334C319.951 24.3865 319.806 24.3279 319.67 24.253L317.538 30.3796C317.343 30.9443 316.809 31.3238 316.212 31.3285L304.178 31.4082V31.4105Z" fill="#110A1D"/>
<path d="M247.262 50.1694C240.985 50.1694 234.713 47.7821 229.933 43.0023C220.378 33.4478 220.378 17.9045 229.933 8.35003C234.564 3.71944 240.717 1.17261 247.262 1.17261C253.806 1.17261 259.96 3.71944 264.59 8.35003C274.145 17.9045 274.145 33.4478 264.59 43.0023C259.816 47.7769 253.539 50.1694 247.262 50.1694ZM231.219 41.716C240.064 50.5604 254.454 50.5604 263.299 41.716C272.143 32.8716 272.143 18.4807 263.299 9.63631C259.013 5.35044 253.317 2.99396 247.256 2.99396C241.196 2.99396 235.5 5.35558 231.214 9.63631C222.37 18.4807 222.37 32.8716 231.214 41.716H231.219Z" fill="#7DDACF"/>
<path d="M248.169 20.5183L243.631 26.8776H246.352V31.4156L250.89 25.0614H248.169V20.5183Z" fill="#7DDACF"/>
<path d="M247.257 16.9834C242.287 16.9834 238.253 21.0172 238.253 25.9873C238.253 30.9575 242.287 34.981 247.257 34.981C252.227 34.981 256.261 30.9472 256.261 25.9873C256.261 21.0274 252.227 16.9834 247.257 16.9834ZM247.257 33.8696C242.894 33.8696 239.354 30.3298 239.354 25.9668C239.354 21.6037 242.894 18.0639 247.257 18.0639C251.62 18.0639 255.16 21.6037 255.16 25.9668C255.16 30.3298 251.62 33.8696 247.257 33.8696Z" fill="#7DDACF"/>
<path d="M261.175 11.7613C257.46 8.04139 252.516 5.99878 247.258 5.99878C241.999 5.99878 237.06 8.04654 233.34 11.7613C225.669 19.4326 225.669 31.9198 233.34 39.5963C237.178 43.4345 242.215 45.3537 247.258 45.3537C252.3 45.3537 257.337 43.4345 261.175 39.5963C268.847 31.9249 268.847 19.4378 261.175 11.7613ZM247.258 38.202C240.528 38.202 235.048 32.7224 235.048 25.9926C235.048 23.0188 236.113 20.2919 237.883 18.1618L236.391 16.6697C235.964 16.2427 235.964 15.5481 236.391 15.1159C236.818 14.6837 237.513 14.6889 237.945 15.1159L239.437 16.608C241.289 15.0593 243.62 14.0406 246.162 13.8245V12.816H245.153C244.263 12.816 243.527 12.0803 243.527 11.1902V10.3412C243.527 9.44085 244.263 8.71541 245.153 8.71541H249.372C250.262 8.71541 250.998 9.44085 250.998 10.3412V11.1902C250.998 12.0803 250.262 12.816 249.372 12.816H248.364V13.8245C250.911 14.0457 253.236 15.0644 255.089 16.608L256.581 15.1159C257.008 14.6889 257.702 14.6889 258.134 15.1159C258.561 15.543 258.561 16.2375 258.134 16.6697L256.642 18.1618C258.412 20.2919 259.477 23.0136 259.477 25.9926C259.477 32.7224 253.998 38.202 247.268 38.202H247.258Z" fill="#7DDACF"/>
<path d="M188.801 50.6598C175.295 50.6598 164.31 39.6699 164.31 26.1692C164.31 12.6684 175.3 1.67847 188.801 1.67847C202.301 1.67847 213.291 12.6684 213.291 26.1692C213.291 39.6699 202.301 50.6598 188.801 50.6598ZM188.801 3.30946C176.195 3.30946 165.941 13.5637 165.941 26.1692C165.941 38.7747 176.195 49.0288 188.801 49.0288C201.406 49.0288 211.66 38.7747 211.66 26.1692C211.66 13.5637 201.406 3.30946 188.801 3.30946Z" fill="white"/>
<path d="M204.781 8.69302L197.199 16.2749L198.691 17.7665L206.272 10.1847L204.781 8.69302Z" fill="white"/>
<path d="M178.683 34.7922L171.101 42.374L172.592 43.8657L180.174 36.2838L178.683 34.7922Z" fill="white"/>
<path d="M198.92 34.7908L197.429 36.2825L205.011 43.8643L206.502 42.3727L198.92 34.7908Z" fill="white"/>
<path d="M172.598 8.46345L171.107 9.95508L178.685 17.5333L180.177 16.0417L172.598 8.46345Z" fill="white"/>
<path d="M194.78 26.8276C195.274 26.3336 195.274 25.5361 194.78 25.0474L193.73 24.0029C193.236 23.509 192.439 23.509 191.95 24.0029L191.384 24.5689L190.731 23.9154C190.237 23.4215 189.439 23.4215 188.95 23.9154L188.384 24.4865L187.731 23.828C187.237 23.334 186.44 23.334 185.951 23.828L182.478 27.3009C182.452 27.3266 182.452 27.3678 182.478 27.3987C182.941 27.8617 183.697 27.8617 184.165 27.3987L186.404 25.1605C186.645 24.9187 187.036 24.9187 187.278 25.1605L187.443 25.3252C187.474 25.3561 187.474 25.4024 187.443 25.4332L185.575 27.3009C185.549 27.3266 185.549 27.3678 185.575 27.3987C186.038 27.8617 186.795 27.8617 187.263 27.3987L189.408 25.2532C189.65 25.0114 190.041 25.0114 190.283 25.2532L190.448 25.4178C190.473 25.4435 190.473 25.4847 190.448 25.5156L188.647 27.3163C188.621 27.3421 188.621 27.3832 188.647 27.4141C189.11 27.8772 189.866 27.8772 190.334 27.4141L192.408 25.3406C192.65 25.0988 193.041 25.0988 193.283 25.3406L193.638 25.6956C193.776 25.8346 193.776 26.0661 193.638 26.205L193.581 26.2616C193.442 26.4005 193.21 26.4005 193.072 26.2616L192.614 25.8037C192.588 25.778 192.547 25.778 192.516 25.8037L191.724 26.596C191.698 26.6218 191.698 26.6629 191.724 26.6938L192.439 27.409C192.933 27.9029 193.73 27.9029 194.219 27.409L194.785 26.843L194.78 26.8276Z" fill="white"/>
<path d="M188.801 7.38428C178.429 7.38428 170.021 15.7914 170.021 26.1639C170.021 36.5364 178.429 44.9435 188.801 44.9435C199.174 44.9435 207.581 36.5364 207.581 26.1639C207.581 15.7914 199.174 7.38428 188.801 7.38428ZM189.568 13.1828C192.583 13.3577 195.32 14.5617 197.44 16.4448L194.728 19.1563C193.313 17.9575 191.528 17.1806 189.568 17.0159V13.1828ZM188.04 13.1828V17.0159C186.079 17.1754 184.294 17.9575 182.879 19.1563L180.168 16.4448C182.287 14.5617 185.025 13.3577 188.04 13.1828ZM179.087 17.5253L181.799 20.2367C180.6 21.6516 179.823 23.437 179.658 25.3973H175.825C176 22.3823 177.204 19.6451 179.087 17.5253ZM175.825 26.9254H179.658C179.818 28.8857 180.6 30.671 181.799 32.0859L179.087 34.7974C177.204 32.6776 176 29.9404 175.825 26.9254ZM188.04 39.1398C185.025 38.9649 182.287 37.7609 180.168 35.8778L182.879 33.1664C184.294 34.3652 186.079 35.1421 188.04 35.3067V39.1398ZM180.909 26.1587C180.909 21.8008 184.443 18.2662 188.801 18.2662C193.159 18.2662 196.694 21.8008 196.694 26.1587C196.694 30.5166 193.159 34.0513 188.801 34.0513C184.443 34.0513 180.909 30.5166 180.909 26.1587ZM189.568 39.1398V35.3067C191.528 35.1472 193.313 34.3652 194.728 33.1664L197.44 35.8778C195.32 37.7609 192.583 38.9649 189.568 39.1398ZM198.52 34.7974L195.809 32.0859C197.008 30.671 197.784 28.8857 197.949 26.9254H201.782C201.607 29.9404 200.403 32.6776 198.52 34.7974ZM197.949 25.3973C197.79 23.437 197.008 21.6516 195.809 20.2367L198.52 17.5253C200.403 19.6451 201.607 22.3823 201.782 25.3973H197.949Z" fill="white"/>
<path d="M62.5844 50.3894C49.0786 50.3894 38.0886 39.3994 38.0886 25.8935C38.0886 12.3877 49.0786 1.39772 62.5844 1.39772C76.0903 1.39772 87.0803 12.3877 87.0803 25.8935C87.0803 39.3994 76.0903 50.3894 62.5844 50.3894ZM62.5844 3.16249C50.051 3.16249 39.8534 13.3601 39.8534 25.8935C39.8534 38.427 50.051 48.6246 62.5844 48.6246C75.1179 48.6246 85.3155 38.427 85.3155 25.8935C85.3155 13.3601 75.1179 3.16249 62.5844 3.16249Z" fill="#478BF9"/>
<path d="M122.468 50.3906C121.979 50.3906 121.588 49.9944 121.588 49.5108C121.588 49.0271 121.985 48.631 122.468 48.631C135.002 48.631 145.199 38.4334 145.199 25.8999C145.199 13.3664 135.002 3.16885 122.468 3.16885C121.979 3.16885 121.588 2.77266 121.588 2.28902C121.588 1.80539 121.985 1.40923 122.468 1.40923C135.974 1.40923 146.964 12.3992 146.964 25.9051C146.964 39.4109 135.974 50.4009 122.468 50.4009V50.3906Z" fill="#478BF9"/>
<path d="M86.8818 24.9211H76.1543V27.0358H86.8818V24.9211Z" fill="#478BF9"/>
<path d="M49.9456 24.9211H39.218V27.0358H49.9456V24.9211Z" fill="#478BF9"/>
<path d="M64.2755 39.2451H62.1609V49.9727H64.2755V39.2451Z" fill="#478BF9"/>
<path d="M64.2755 1.98413H62.1609V12.7117H64.2755V1.98413Z" fill="#478BF9"/>
<path d="M75.8303 12.5574C68.4934 5.22046 56.5928 5.22046 49.2507 12.5574C41.9138 19.8943 41.9138 31.7949 49.2507 39.137C56.5876 46.4739 68.4883 46.4739 75.8303 39.137C83.1673 31.8001 83.1673 19.8994 75.8303 12.5574ZM66.173 14.1472C68.3133 14.8109 70.2325 16.0509 71.7245 17.7385L72.0127 18.0626L71.5908 18.1604C70.4743 18.4228 69.2806 18.6389 68.0458 18.7984L67.8246 18.8293L67.7628 18.6132C67.557 17.9083 67.3152 17.2291 67.0374 16.6014C66.6926 15.8142 66.3068 15.1248 65.8849 14.5434L65.4218 13.9105L66.173 14.1421V14.1472ZM57.5858 25.2606L57.5961 24.9931C57.6476 23.3672 57.8276 21.8134 58.1363 20.3831L58.1827 20.1567L58.4142 20.1773C61.1205 20.4139 64.0121 20.4037 66.7029 20.1516L66.9344 20.131L66.9859 20.3574C67.2998 21.8031 67.4798 23.3621 67.5261 24.9931V25.2606H57.591H57.5858ZM67.5261 26.4543V26.7219C67.4696 28.3529 67.2895 29.9118 66.9756 31.3576L66.9242 31.584L66.6926 31.5634C64.0018 31.3113 61.1102 31.3061 58.4039 31.5377L58.1724 31.5582L58.126 31.3318C57.8173 29.9015 57.6373 28.3529 57.5858 26.7219L57.5755 26.4543H67.5158H67.5261ZM62.556 13.6996C64.0532 13.6996 65.5762 15.5981 66.528 18.6595L66.6258 18.9682L66.3016 18.9939C65.0359 19.1019 63.7291 19.1585 62.4171 19.1585C61.1977 19.1585 59.9834 19.1122 58.8 19.0145L58.4759 18.9888L58.5737 18.6749C59.5255 15.6033 61.0536 13.6945 62.556 13.6945V13.6996ZM53.3359 17.7951C54.8383 16.0818 56.7729 14.8212 58.939 14.1524L59.6953 13.9208L59.2271 14.5588C58.8052 15.1351 58.4142 15.8297 58.0746 16.6117C57.8019 17.2291 57.5549 17.9186 57.3389 18.6595L57.2771 18.8704L57.0559 18.8447C55.8108 18.6904 54.6068 18.4845 53.4749 18.2221L53.0478 18.1244L53.3359 17.7951ZM50.3312 24.9828C50.4753 22.9762 51.1184 21.0211 52.1937 19.318L52.2967 19.1585L52.4819 19.2048C53.799 19.5393 55.2191 19.8068 56.7111 19.9972L56.989 20.0332L56.9324 20.311C56.6237 21.8031 56.4487 23.3827 56.4024 25.0085V25.2606H50.3158L50.3364 24.9828H50.3312ZM52.2967 32.5564L52.1937 32.3969C51.1184 30.699 50.4753 28.7387 50.3312 26.7321L50.3106 26.4543H56.3921V26.7064C56.4436 28.3323 56.6237 29.917 56.9272 31.4039L56.9838 31.6817L56.706 31.7177C55.219 31.9081 53.7939 32.1757 52.4767 32.5101L52.2915 32.5564H52.2967ZM58.939 37.5677C56.7729 36.8988 54.8383 35.6383 53.3359 33.925L53.0478 33.5957L53.4749 33.4979C54.6068 33.2407 55.8108 33.0297 57.0559 32.8754L57.2771 32.8497L57.3389 33.0606C57.5549 33.8015 57.8019 34.491 58.0746 35.1084C58.4193 35.8956 58.8052 36.585 59.2271 37.1664L59.6953 37.8044L58.939 37.5729V37.5677ZM62.556 38.0153C61.0536 38.0153 59.5255 36.1065 58.5737 33.0349L58.4759 32.721L58.8 32.6953C61.2543 32.4998 63.868 32.5049 66.3016 32.7159L66.6258 32.7416L66.528 33.0503C65.571 36.1065 64.0481 38.0102 62.556 38.0102V38.0153ZM71.7245 33.9764C70.2325 35.664 68.3082 36.904 66.173 37.5677L65.4218 37.7992L65.8849 37.1664C66.3068 36.5902 66.6926 35.8956 67.0374 35.1084C67.31 34.4755 67.557 33.8015 67.7628 33.0966L67.8246 32.8805L68.0458 32.9114C69.2806 33.0709 70.4743 33.287 71.5908 33.5494L72.0127 33.6523L71.7245 33.9764ZM74.7756 26.7321C74.6315 28.7593 73.9781 30.7402 72.8771 32.4586L72.7742 32.6181L72.5889 32.5718C71.2872 32.2271 69.8723 31.9544 68.3905 31.7537L68.1127 31.7177L68.1693 31.4451C68.478 29.953 68.6581 28.3631 68.7044 26.7116V26.4594H74.791L74.7705 26.7373L74.7756 26.7321ZM68.7147 25.2606V25.0085C68.6632 23.3569 68.4831 21.762 68.1744 20.275L68.1178 20.0024L68.3957 19.9663C69.8775 19.7657 71.2872 19.493 72.5941 19.1482L72.7793 19.102L72.8822 19.2615C73.9832 20.9799 74.6418 22.9556 74.7807 24.988L74.8013 25.2658H68.7198L68.7147 25.2606Z" fill="#478BF9"/>
<path d="M122.839 50.4202L63.7214 50.4202C63.2326 50.4202 62.8416 50.024 62.8416 49.5403C62.8416 49.0567 63.2377 48.6605 63.7214 48.6605L122.839 48.6605C123.327 48.6605 123.718 49.0567 123.718 49.5403C123.718 50.024 123.322 50.4202 122.839 50.4202Z" fill="#478BF9"/>
<path d="M122.973 3.18872L63.8554 3.18872C63.3666 3.18872 62.9756 2.79257 62.9756 2.30893C62.9756 1.82529 63.3718 1.4291 63.8554 1.4291L122.973 1.4291C123.461 1.4291 123.852 1.82529 123.852 2.30893C123.852 2.79257 123.456 3.18872 122.973 3.18872Z" fill="#478BF9"/>
<path d="M-15.3673 43.8244C-25.0013 34.1904 -25.0013 18.5165 -15.3673 8.88247C-5.7333 -0.751513 9.94065 -0.751513 19.5746 8.88247C29.2086 18.5165 29.2086 34.1904 19.5746 43.8244C9.94065 53.4584 -5.7333 53.4584 -15.3673 43.8244ZM18.4102 10.0469C9.41819 1.05486 -5.21084 1.05486 -14.2005 10.0469C-23.1926 19.0389 -23.1926 33.668 -14.2005 42.6576C-5.2085 51.6497 9.42054 51.6497 18.4102 42.6576C27.4023 33.6656 27.4023 19.0366 18.4102 10.0469Z" fill="white"/>
<path d="M18.6768 21.1123C18.5901 21.0256 18.5199 20.9155 18.48 20.7936C17.6249 18.2633 16.2285 16.0211 14.3308 14.1234C12.4354 12.228 10.1909 10.8316 7.66054 9.97414C7.32551 9.85933 7.10059 9.54773 7.10059 9.19396V3.18912C7.10059 2.93608 7.21772 2.6971 7.41687 2.54013C7.61836 2.38316 7.87842 2.32927 8.12208 2.39019C12.4471 3.47261 16.4066 5.7171 19.5695 8.88235C22.7324 12.0476 24.9769 16.0048 26.0593 20.3297C26.1202 20.5757 26.064 20.8358 25.9094 21.0373C25.7524 21.2388 25.5134 21.3536 25.2604 21.3536H19.2555C19.0306 21.3536 18.8244 21.2622 18.6721 21.1099L18.6768 21.1123ZM15.4952 12.959C17.4304 14.8942 18.89 17.1621 19.8412 19.7065H24.185C23.0932 16.0703 21.1088 12.7481 18.4074 10.0468C15.706 7.34541 12.3838 5.36098 8.74999 4.27153V8.61526C11.2944 9.56413 13.5623 11.0238 15.4975 12.9613L15.4952 12.959Z" fill="white"/>
<path d="M7.34582 50.0987C7.19119 49.944 7.10449 49.7355 7.10449 49.5153V43.5104C7.10449 43.1567 7.32941 42.8427 7.66445 42.7303C10.1948 41.8751 12.4369 40.4787 14.3347 38.581C16.2324 36.6833 17.6264 34.4411 18.4839 31.9108C18.5964 31.5757 18.9103 31.3508 19.2641 31.3508H25.269C25.522 31.3508 25.761 31.468 25.9179 31.6671C26.0749 31.8663 26.1288 32.1287 26.0679 32.3723C24.9831 36.6973 22.7386 40.6545 19.5757 43.8197C16.4128 46.985 12.4533 49.2295 8.12834 50.3119C7.88233 50.3728 7.62227 50.3166 7.42312 50.1619C7.39735 50.1385 7.37159 50.1174 7.34816 50.094L7.34582 50.0987ZM8.75155 44.0915V48.4352C12.3877 47.3434 15.7099 45.359 18.4113 42.6576C21.1127 39.9563 23.0948 36.6341 24.1889 32.9979H19.8452C18.8963 35.5423 17.4366 37.8078 15.4991 39.7454C13.5638 41.6806 11.2959 43.1426 8.75155 44.0915Z" fill="white"/>
<path d="M15.4971 12.9592C8.11227 5.57436 -3.90677 5.57201 -11.2916 12.9592C-18.6787 20.3463 -18.6764 32.363 -11.2916 39.7478C-3.90677 47.1326 8.10993 47.135 15.4971 39.7478C22.8842 32.3607 22.8819 20.344 15.4971 12.9592Z" fill="white"/>
<path d="M8.93613 33.1143L-4.67109 33.2045C-5.2443 33.2083 -5.7059 33.6761 -5.7021 34.2493L-5.69888 34.7343C-5.69508 35.3075 -5.22731 35.7691 -4.65411 35.7653L8.95311 35.675C9.52632 35.6712 9.98792 35.2035 9.98412 34.6303L9.98091 34.1453C9.9771 33.5721 9.50934 33.1105 8.93613 33.1143Z" fill="#110A1D"/>
<path d="M6.9775 24.8352C6.65887 24.8352 6.35665 24.683 6.1739 24.4229L5.48742 23.4553C5.32811 23.2327 5.27189 22.9516 5.32812 22.6845C5.38435 22.4174 5.55303 22.1831 5.78967 22.0448L7.09465 21.2787C7.24225 21.192 7.41095 21.1452 7.58199 21.1428C7.98028 21.1405 8.33874 21.3771 8.49338 21.745L8.98538 22.9234C9.18218 23.3967 8.97835 23.9473 8.52149 24.1769L7.41096 24.7321C7.27741 24.7977 7.12745 24.8352 6.97985 24.8352H6.9775Z" fill="#110A1D"/>
<path d="M-3.88622 32.295C-4.48366 32.2997 -5.02017 31.9248 -5.224 31.3626L-7.49425 25.1141C-7.63951 25.1843 -7.79416 25.2382 -7.95114 25.2781C-8.13622 25.3249 -8.32366 25.3483 -8.51344 25.3483C-8.62355 25.3483 -8.73133 25.3437 -8.83676 25.3296C-10.0199 25.1797 -10.9172 24.1652 -10.9243 22.9703C-10.9336 21.6489 -9.86529 20.5665 -8.54389 20.5571C-7.2225 20.5478 -6.14008 21.6161 -6.13305 22.9375C-6.13305 23.2421 -6.1846 23.5349 -6.29238 23.8091C-6.35095 23.959 -6.42356 24.1019 -6.5079 24.2378L-2.18997 26.3277L1.11354 21.5411C0.975307 21.4826 0.841745 21.4099 0.715229 21.3233C0.476254 21.1616 0.267735 20.9601 0.0990467 20.7235C-0.186787 20.3205 -0.341421 19.8449 -0.343764 19.3529C-0.353135 18.0315 0.715233 16.9491 2.03662 16.9397C2.0952 16.9397 2.15611 16.9397 2.21469 16.9444C3.39785 17.024 4.35375 17.9729 4.44044 19.1561C4.48027 19.716 4.33268 20.2525 4.01404 20.7094C3.84536 20.9484 3.63915 21.1522 3.40252 21.3139C3.27835 21.4006 3.14482 21.4732 3.00659 21.5318L6.36864 26.2691L10.6163 24.1441C10.5366 23.9918 10.4734 23.8325 10.4265 23.6661C10.3703 23.4647 10.3399 23.2538 10.3399 23.0406C10.3399 22.9445 10.3445 22.8485 10.3539 22.7548C10.4898 21.5505 11.5066 20.6368 12.7179 20.6298C14.0393 20.6204 15.1217 21.6887 15.1287 23.0101C15.1381 24.2706 14.1588 25.3296 12.9006 25.4163L12.7507 25.421C12.507 25.421 12.2681 25.3882 12.0361 25.3179C11.8862 25.271 11.7409 25.2125 11.605 25.1375L9.47297 31.2642C9.27851 31.8288 8.74432 32.2083 8.14688 32.213L-3.88622 32.2927V32.295Z" fill="#110A1D"/>
</g>
</svg>
